<?xml version="1.0" encoding="UTF-8"?>
<!-- Generator: visioncortex VTracer 0.6.3 -->
<svg version="1.1" xmlns="http://www.w3.org/2000/svg" width="1280" height="1280">
<path d="M0 0 C1.24 -0.02 1.24 -0.02 2.5 -0.04 C7.94 -0.05 12.59 0.66 17.81 2.19 C17.81 2.85 17.81 3.51 17.81 4.19 C19.13 4.19 20.45 4.19 21.81 4.19 C21.81 4.85 21.81 5.51 21.81 6.19 C22.8 6.19 23.79 6.19 24.81 6.19 C27.25 8.44 27.25 8.44 29.81 11.19 C30.51 11.85 31.22 12.51 31.94 13.19 C36.07 17.59 38.88 23.48 40.81 29.19 C40.48 29.85 40.15 30.51 39.81 31.19 C40.43 31.37 41.05 31.56 41.69 31.75 C44.86 33.9 44.89 36.56 45.81 40.19 C46.78 41.87 47.78 43.54 48.81 45.19 C50.68 49.22 51.95 52.86 52.81 57.19 C53.34 58.42 53.88 59.65 54.44 60.88 C55.12 62.51 55.12 62.51 55.81 64.19 C55.48 64.85 55.15 65.51 54.81 66.19 C55.43 66.42 56.06 66.65 56.7 66.88 C59.49 68.6 59.74 69.96 60.69 73.06 C62.13 77.43 63.85 81.37 66 85.44 C68.27 89.82 69.59 93.26 69.81 98.19 C70.47 98.19 71.13 98.19 71.81 98.19 C71.92 98.7 72.02 99.22 72.12 99.75 C73.05 103.03 74.42 106.08 75.81 109.19 C76.21 110.09 76.61 110.98 77.02 111.91 C79.47 117.46 79.47 117.46 82.43 122.75 C84.43 126.27 84.47 129.19 84.81 133.19 C85.47 133.19 86.13 133.19 86.81 133.19 C86.48 133.85 86.15 134.51 85.81 135.19 C86.14 135.52 86.47 135.85 86.81 136.19 C89.08 138.46 89.7 140.2 90.81 143.19 C91.47 144.86 92.14 146.52 92.81 148.19 C93.29 149.36 93.76 150.54 94.25 151.75 C95.55 154.62 96.8 156.79 98.81 159.19 C99.47 157.87 100.13 156.55 100.81 155.19 C101.47 155.19 102.13 155.19 102.81 155.19 C102.81 153.54 102.81 151.89 102.81 150.19 C103.47 150.19 104.13 150.19 104.81 150.19 C104.94 149.47 105.06 148.74 105.19 148 C105.8 145.23 106.7 142.79 107.81 140.19 C108.47 140.19 109.13 140.19 109.81 140.19 C109.77 139.24 109.73 138.29 109.69 137.31 C109.81 134.19 109.81 134.19 111.81 132.19 C112.46 130.12 112.46 130.12 112.81 128.19 C113.47 128.19 114.13 128.19 114.81 128.19 C114.9 127.55 114.98 126.91 115.06 126.25 C115.93 122.71 117.33 119.66 118.88 116.37 C119.76 114.32 120.34 112.37 120.81 110.19 C121.47 110.19 122.13 110.19 122.81 110.19 C122.93 109.47 123.06 108.76 123.18 108.02 C123.82 105.14 124.75 102.6 125.88 99.88 C126.24 98.99 126.6 98.11 126.97 97.2 C127.25 96.54 127.53 95.87 127.81 95.19 C128.47 95.19 129.13 95.19 129.81 95.19 C129.94 94.14 130.06 93.08 130.19 92 C130.72 88.73 131.45 86.18 132.81 83.19 C133.47 83.19 134.13 83.19 134.81 83.19 C134.97 82.16 134.97 82.16 135.14 81.11 C135.93 77.69 137.17 74.71 138.56 71.5 C138.96 70.58 138.96 70.58 139.37 69.65 C141.36 65.1 143.52 60.66 145.83 56.27 C146.78 54.25 147.35 52.37 147.81 50.19 C148.47 50.19 149.13 50.19 149.81 50.19 C149.93 49.49 150.04 48.78 150.16 48.06 C150.88 44.91 151.97 42.16 153.25 39.19 C154.81 35.53 156.35 31.88 157.81 28.19 C158.47 28.19 159.13 28.19 159.81 28.19 C159.97 27.14 159.97 27.14 160.12 26.06 C161.3 21.16 163.29 17.71 166.81 14.19 C167 13.17 167 13.17 167.19 12.12 C167.39 11.49 167.6 10.85 167.81 10.19 C170.19 9.12 170.19 9.12 172.81 8.19 C173.29 7.71 173.76 7.24 174.25 6.75 C180.17 0.83 189.34 -0.06 197.28 -0.09 C198.57 -0.07 198.57 -0.07 199.88 -0.06 C200.73 -0.07 201.59 -0.08 202.48 -0.09 C207.61 -0.07 211.9 0.53 216.81 2.19 C218.15 2.57 218.15 2.57 219.51 2.97 C223.69 4.21 227.8 5.45 231.81 7.19 C231.81 7.85 231.81 8.51 231.81 9.19 C233.79 9.68 233.79 9.68 235.81 10.19 C235.81 10.85 235.81 11.51 235.81 12.19 C236.8 12.52 237.79 12.85 238.81 13.19 C240 16.75 240 16.75 240.81 20.19 C241.14 20.19 241.47 20.19 241.81 20.19 C241.81 77.61 241.81 135.03 241.81 194.19 C228.61 194.19 215.41 194.19 201.81 194.19 C199.48 190.69 199.56 189.34 199.57 185.21 C199.57 183.33 199.57 183.33 199.56 181.42 C199.57 180.03 199.58 178.65 199.59 177.26 C199.59 175.8 199.59 174.34 199.58 172.89 C199.58 168.92 199.6 164.96 199.61 161 C199.62 156.86 199.62 152.72 199.63 148.58 C199.63 140.74 199.65 132.9 199.67 125.05 C199.69 116.13 199.7 107.2 199.71 98.28 C199.73 79.91 199.77 61.55 199.81 43.19 C199.15 43.19 198.49 43.19 197.81 43.19 C195.76 46.15 194.65 48.72 193.81 52.19 C192.82 53.18 192.82 53.18 191.81 54.19 C191.81 55.18 191.81 56.17 191.81 57.19 C191.15 57.19 190.49 57.19 189.81 57.19 C189.48 59.5 189.15 61.81 188.81 64.19 C188.15 64.19 187.49 64.19 186.81 64.19 C186.75 64.97 186.69 65.75 186.62 66.56 C185.51 71.56 183.19 75.68 180.81 80.19 C180.26 81.36 179.7 82.54 179.12 83.75 C177.81 86.19 177.81 86.19 175.81 87.19 C175.87 87.89 175.94 88.59 176 89.31 C175.77 92.88 174.62 95.13 172.81 98.19 C171.82 98.68 171.82 98.68 170.81 99.19 C170.25 100.97 170.25 100.97 169.81 103.19 C167.89 109.41 165.94 115.45 162.81 121.19 C162.08 122.64 161.35 124.1 160.62 125.56 C160.02 126.77 159.42 127.98 158.81 129.19 C158.15 129.19 157.49 129.19 156.81 129.19 C156.9 129.85 156.98 130.51 157.06 131.19 C156.76 134.8 155.51 137.1 153.83 140.27 C152.64 142.52 151.71 144.81 150.81 147.19 C150.15 148.85 149.48 150.52 148.81 152.19 C148.15 152.19 147.49 152.19 146.81 152.19 C146.81 153.84 146.81 155.49 146.81 157.19 C146.15 157.19 145.49 157.19 144.81 157.19 C144.73 158.2 144.65 159.21 144.56 160.25 C144.07 163.79 142.74 166.33 140.84 169.38 C139.77 171.26 139.11 173.07 138.44 175.12 C136.78 179.82 133.91 183.35 130.81 187.19 C130.04 188.26 130.04 188.26 129.26 189.36 C127.36 191.76 125.7 192.16 122.81 193.19 C121.74 193.89 120.67 194.59 119.56 195.31 C113.53 198.37 106.61 197.57 100.04 197.28 C97.89 197.19 95.74 197.14 93.59 197.09 C86.55 196.82 82.59 196.44 76.81 192.19 C75.97 191.88 75.12 191.57 74.25 191.25 C70.99 189.83 69.11 187.87 66.81 185.19 C66.81 184.2 66.81 183.21 66.81 182.19 C66.15 181.86 65.49 181.53 64.81 181.19 C63.7 179.25 63.7 179.25 62.5 176.75 C62.06 175.84 61.62 174.94 61.17 174 C60.72 173.07 60.27 172.15 59.81 171.19 C58.96 169.52 58.11 167.85 57.25 166.19 C55.24 162.17 53.54 158.09 51.91 153.91 C49.37 147.63 46.7 141.25 43.14 135.48 C41.6 132.83 41.55 131.2 41.81 128.19 C41.15 128.19 40.49 128.19 39.81 128.19 C39.58 127.59 39.35 127 39.11 126.39 C36.9 120.75 34.51 115.22 31.96 109.73 C28.81 102.76 28.81 102.76 28.81 99.19 C28.15 98.86 27.49 98.53 26.81 98.19 C25.92 96.54 25.92 96.54 25 94.38 C24.65 93.57 24.31 92.76 23.95 91.93 C22.31 87.98 20.67 84.04 19.06 80.08 C18.21 78.11 17.3 76.17 16.34 74.25 C14.72 71 13.29 67.72 11.88 64.38 C7.11 53.16 7.11 53.16 1.81 42.19 C1.48 42.19 1.15 42.19 0.81 42.19 C-0.12 50.6 -0.35 58.92 -0.39 67.38 C-0.4 68.77 -0.41 70.16 -0.42 71.55 C-0.45 75.29 -0.47 79.03 -0.49 82.77 C-0.51 86.7 -0.54 90.62 -0.57 94.54 C-0.62 101.95 -0.66 109.37 -0.7 116.78 C-0.75 125.22 -0.81 133.67 -0.86 142.11 C-0.98 159.47 -1.08 176.83 -1.19 194.19 C-15.05 194.19 -28.91 194.19 -43.19 194.19 C-43.21 172.13 -43.23 150.06 -43.24 128 C-43.24 117.76 -43.25 107.52 -43.26 97.27 C-43.27 88.34 -43.28 79.42 -43.28 70.49 C-43.28 65.76 -43.29 61.03 -43.29 56.31 C-43.3 51.85 -43.3 47.4 -43.3 42.95 C-43.3 41.32 -43.3 39.69 -43.31 38.06 C-43.31 35.83 -43.31 33.59 -43.31 31.36 C-43.31 30.11 -43.31 28.87 -43.31 27.58 C-43.19 24.36 -42.8 21.35 -42.19 18.19 C-41.53 18.19 -40.87 18.19 -40.19 18.19 C-39.79 16.83 -39.79 16.83 -39.38 15.44 C-38.25 12.37 -37.53 10.44 -35.19 8.19 C-32 7.44 -32 7.44 -29.19 7.19 C-29.19 6.53 -29.19 5.87 -29.19 5.19 C-28 4.91 -26.8 4.63 -25.57 4.35 C-24.01 3.98 -22.44 3.62 -20.88 3.25 C-20.09 3.07 -19.3 2.89 -18.49 2.7 C-17.74 2.52 -16.98 2.34 -16.2 2.16 C-15.5 2 -14.81 1.84 -14.09 1.67 C-9.13 0.41 -5.14 0 0 0 Z M198.81 40.19 C199.81 42.19 199.81 42.19 199.81 42.19 Z M49.81 52.19 C50.81 54.19 50.81 54.19 50.81 54.19 Z M189.81 54.19 C190.81 56.19 190.81 56.19 190.81 56.19 Z M179.81 76.19 C180.81 78.19 180.81 78.19 180.81 78.19 Z M164.81 108.19 C165.81 110.19 165.81 110.19 165.81 110.19 Z M-3.19 190.19 C-3.52 191.18 -3.85 192.17 -4.19 193.19 C-3.53 193.19 -2.87 193.19 -2.19 193.19 C-2.52 192.2 -2.85 191.21 -3.19 190.19 Z M239.81 190.19 C239.81 190.85 239.81 191.51 239.81 192.19 C238.82 192.68 238.82 192.68 237.81 193.19 C238.8 193.19 239.79 193.19 240.81 193.19 C240.48 192.2 240.15 191.21 239.81 190.19 Z " fill="#005F89" transform="translate(62.1875,709.8125)"/>
<path d="M0 0 C0.91 -0.01 1.81 -0.01 2.75 -0.02 C5.74 -0.03 8.73 -0.03 11.73 -0.03 C13.82 -0.03 15.92 -0.03 18.02 -0.04 C22.42 -0.05 26.83 -0.05 31.23 -0.04 C36.82 -0.04 42.42 -0.05 48.01 -0.08 C52.35 -0.09 56.69 -0.09 61.03 -0.09 C63.09 -0.09 65.15 -0.09 67.2 -0.1 C83.97 -0.18 102.76 -0.17 118 7.77 C118.81 8.2 119.63 8.62 120.48 9.06 C121.25 9.46 122.01 9.86 122.81 10.27 C123.54 10.61 124.27 10.95 125.03 11.3 C127.31 12.55 127.86 13.9 128.81 16.27 C129.8 16.27 130.79 16.27 131.81 16.27 C131.81 16.93 131.81 17.59 131.81 18.27 C132.47 18.27 133.13 18.27 133.81 18.27 C138.11 22.78 140.48 27.25 141.81 33.27 C142.14 33.93 142.47 34.59 142.81 35.27 C142.91 36.89 142.95 38.51 142.96 40.12 C142.97 41.66 142.97 41.66 142.98 43.23 C142.98 44.36 142.98 45.49 142.98 46.65 C142.99 47.84 143 49.02 143 50.24 C143.02 54.18 143.04 58.12 143.05 62.06 C143.05 63.42 143.05 64.77 143.06 66.13 C143.08 72.51 143.09 78.9 143.1 85.28 C143.11 92.63 143.14 99.99 143.18 107.35 C143.21 113.04 143.22 118.73 143.22 124.42 C143.23 127.81 143.24 131.21 143.26 134.61 C143.29 138.4 143.28 142.2 143.28 145.99 C143.3 147.67 143.3 147.67 143.32 149.37 C143.25 159.92 139.63 167.52 132.87 175.59 C130.5 177.53 128.82 177.94 125.81 178.27 C125.48 179.26 125.15 180.25 124.81 181.27 C123.49 180.94 122.17 180.61 120.81 180.27 C122.98 184.28 125.52 187.14 128.81 190.27 C129.49 191 130.17 191.72 130.87 192.46 C132.77 194.24 134.43 195.26 136.81 196.27 C136.81 196.93 136.81 197.59 136.81 198.27 C137.38 198.52 137.95 198.76 138.54 199.02 C141.21 200.49 143 202.24 145.14 204.41 C146.33 205.62 146.33 205.62 147.56 206.85 C148.8 208.11 148.8 208.11 150.06 209.4 C150.9 210.25 151.74 211.1 152.6 211.97 C154.68 214.07 156.74 216.17 158.81 218.27 C156.81 220.27 156.81 220.27 154.88 220.52 C153.7 220.52 153.7 220.52 152.5 220.52 C151.61 220.52 150.72 220.52 149.8 220.53 C148.83 220.52 147.87 220.51 146.87 220.51 C145.39 220.5 145.39 220.5 143.88 220.5 C141.78 220.5 139.69 220.49 137.6 220.48 C134.39 220.46 131.18 220.46 127.97 220.46 C125.94 220.46 123.91 220.45 121.87 220.44 C120.91 220.44 119.95 220.44 118.96 220.44 C118.06 220.43 117.17 220.43 116.25 220.42 C115.46 220.42 114.67 220.41 113.86 220.41 C111.81 220.27 111.81 220.27 108.81 219.27 C108.81 218.61 108.81 217.95 108.81 217.27 C107.82 216.94 106.83 216.61 105.81 216.27 C105.81 215.61 105.81 214.95 105.81 214.27 C105.24 214.04 104.68 213.81 104.1 213.56 C101.27 211.97 99.41 210 97.18 207.65 C95.76 206.15 94.31 204.69 92.81 203.27 C92.15 203.27 91.49 203.27 90.81 203.27 C90.14 202.15 90.14 202.15 89.45 201.01 C86.63 196.31 82.72 193.62 77.81 191.27 C73.24 190.46 68.87 190.56 64.25 190.77 C63.06 190.8 61.87 190.82 60.65 190.84 C55.36 190.5 55.36 190.5 50.81 192.27 C49.03 192.37 47.25 192.4 45.48 192.4 C44.34 192.41 43.2 192.41 42.03 192.41 C40.79 192.41 39.55 192.41 38.28 192.41 C37.02 192.41 35.75 192.41 34.45 192.41 C31.78 192.41 29.11 192.41 26.43 192.41 C23 192.4 19.57 192.4 16.13 192.41 C12.87 192.41 9.6 192.41 6.34 192.41 C5.1 192.41 3.86 192.41 2.59 192.41 C1.45 192.41 0.31 192.41 -0.86 192.4 C-1.87 192.4 -2.88 192.4 -3.91 192.4 C-6.19 192.27 -6.19 192.27 -7.19 191.27 C-10.13 190.99 -13.07 190.83 -16.02 190.65 C-19.35 190.26 -22.04 189.43 -25.19 188.27 C-26.53 187.82 -27.87 187.36 -29.21 186.91 C-30.62 186.41 -32.03 185.9 -33.44 185.4 C-34.16 185.16 -34.88 184.91 -35.62 184.66 C-40.94 182.74 -40.94 182.74 -42.36 180.14 C-42.64 179.53 -42.91 178.91 -43.19 178.27 C-44.86 177.93 -46.52 177.6 -48.19 177.27 C-52.95 173.14 -56.8 168.11 -59.19 162.27 C-59.56 161.45 -59.93 160.62 -60.32 159.77 C-62.57 153.34 -62.34 146.81 -62.34 140.08 C-62.34 138.97 -62.34 137.85 -62.35 136.7 C-62.36 133.01 -62.36 129.32 -62.36 125.64 C-62.36 123.08 -62.37 120.51 -62.37 117.95 C-62.38 112.58 -62.38 107.22 -62.38 101.85 C-62.38 95.65 -62.39 89.45 -62.4 83.24 C-62.42 77.27 -62.42 71.3 -62.42 65.33 C-62.42 62.79 -62.43 60.25 -62.43 57.71 C-62.44 54.16 -62.44 50.62 -62.44 47.08 C-62.44 46.02 -62.45 44.97 -62.45 43.88 C-62.45 42.92 -62.44 41.95 -62.44 40.96 C-62.44 40.12 -62.44 39.29 -62.44 38.42 C-62.19 36.27 -62.19 36.27 -60.19 33.27 C-59.8 30.95 -59.46 28.62 -59.19 26.27 C-58.53 26.27 -57.87 26.27 -57.19 26.27 C-57.11 25.54 -57.02 24.8 -56.93 24.04 C-56.05 20.73 -54.81 19.35 -52.38 16.96 C-51.69 16.26 -51.01 15.57 -50.3 14.85 C-48.19 13.27 -48.19 13.27 -44.19 13.27 C-44.19 12.61 -44.19 11.95 -44.19 11.27 C-31.96 4.88 -31.96 4.88 -25.19 5.27 C-25.19 4.61 -25.19 3.95 -25.19 3.27 C-24.54 3.23 -23.89 3.18 -23.22 3.13 C-21.9 3.01 -21.9 3.01 -20.57 2.9 C-19.71 2.83 -18.85 2.76 -17.97 2.69 C-15.17 2.38 -15.17 2.38 -12.59 1.27 C-8.31 0.02 -4.44 -0.01 0 0 Z M-8.19 35.27 C-9.18 35.93 -10.17 36.59 -11.19 37.27 C-11.19 37.93 -11.19 38.59 -11.19 39.27 C-11.85 39.27 -12.51 39.27 -13.19 39.27 C-16.72 45.38 -17.77 49.76 -17.69 56.76 C-17.7 57.67 -17.7 58.59 -17.71 59.53 C-17.72 62.53 -17.71 65.52 -17.69 68.52 C-17.69 70.62 -17.69 72.71 -17.69 74.81 C-17.69 79.2 -17.68 83.59 -17.66 87.97 C-17.63 93.58 -17.63 99.18 -17.65 104.79 C-17.65 109.12 -17.64 113.45 -17.63 117.77 C-17.63 119.84 -17.63 121.91 -17.63 123.97 C-17.63 126.87 -17.62 129.76 -17.6 132.66 C-17.6 133.5 -17.61 134.35 -17.61 135.21 C-17.52 142.61 -16.15 150.17 -10.75 155.59 C-0.08 164.91 13.25 163.77 26.56 163.52 C28.43 163.5 30.3 163.49 32.18 163.47 C36.72 163.43 41.26 163.36 45.81 163.27 C44.45 156.86 38.85 152.45 33.5 148.96 C32.61 148.41 31.72 147.85 30.81 147.27 C29.81 146.27 28.81 145.27 27.81 144.27 C27.15 144.27 26.49 144.27 25.81 144.27 C25.81 143.61 25.81 142.95 25.81 142.27 C23.8 140.42 21.69 138.74 19.56 137.03 C17.81 135.27 17.81 135.27 17.81 132.27 C42.06 132.77 42.06 132.77 66.81 133.27 C66.81 133.93 66.81 134.59 66.81 135.27 C68.69 136.91 68.69 136.91 71.06 138.59 C74.55 141.22 77.16 143.77 79.81 147.27 C82.88 150.31 82.88 150.31 86.81 151.27 C86.81 151.93 86.81 152.59 86.81 153.27 C90.34 157.02 90.34 157.02 95.06 158.34 C97.28 156.99 97.88 155.66 98.81 153.27 C99.47 153.27 100.13 153.27 100.81 153.27 C102.9 150.14 103.06 149.42 103.08 145.86 C103.09 144.96 103.1 144.06 103.11 143.13 C103.11 142.14 103.11 141.15 103.11 140.13 C103.13 138.57 103.13 138.57 103.14 136.97 C103.16 133.52 103.17 130.06 103.18 126.6 C103.19 124.2 103.2 121.8 103.21 119.4 C103.22 114.36 103.23 109.33 103.23 104.29 C103.24 97.84 103.28 91.39 103.32 84.94 C103.35 79.98 103.36 75.02 103.36 70.06 C103.36 67.68 103.38 65.3 103.4 62.92 C103.42 59.59 103.42 56.27 103.41 52.94 C103.42 51.96 103.44 50.98 103.45 49.97 C103.38 43.67 102.26 39.82 97.81 35.27 C89.73 28.1 77.92 29.55 67.86 29.61 C65.92 29.61 63.98 29.6 62.04 29.6 C57.99 29.59 53.94 29.6 49.9 29.62 C44.72 29.65 39.54 29.63 34.37 29.6 C30.37 29.59 26.37 29.59 22.37 29.61 C20.46 29.61 18.55 29.6 16.65 29.59 C13.97 29.58 11.31 29.6 8.64 29.63 C7.86 29.62 7.08 29.61 6.28 29.6 C0.27 29.71 -3.4 31.78 -8.19 35.27 Z " fill="#E08E03" transform="translate(836.192138671875,713.725341796875)"/>
<path d="M0 0 C0.8 0.01 1.6 0.02 2.43 0.03 C10.77 0.22 17.53 1.82 25.19 5.31 C26.85 5.99 28.52 6.65 30.19 7.31 C41.84 11.97 41.84 11.97 44.19 14.31 C45.85 15.33 47.51 16.32 49.19 17.31 C51.19 18.65 53.19 19.98 55.19 21.31 C57.5 22.73 59.77 24.1 62.19 25.31 C62.19 25.97 62.19 26.63 62.19 27.31 C65.98 29.68 70.03 29.98 74.38 30.44 C75.14 30.52 75.91 30.61 76.7 30.7 C80.49 31.11 84.18 31.4 88 31.25 C93.61 31.1 98.83 32.81 104.19 34.31 C105.72 34.71 105.72 34.71 107.29 35.11 C114.8 37.05 114.8 37.05 118.19 39.31 C119.77 39.75 119.77 39.75 121.38 40.19 C125.57 41.43 129.47 42.99 133.19 45.31 C133.52 45.97 133.85 46.63 134.19 47.31 C135.18 47.31 136.17 47.31 137.19 47.31 C139.19 49.31 139.19 49.31 140.19 51.31 C142.71 51.97 142.71 51.97 145.19 52.31 C145.19 52.97 145.19 53.63 145.19 54.31 C145.76 54.44 146.34 54.56 146.94 54.69 C149.21 55.32 151.11 56.2 153.19 57.31 C153.19 57.97 153.19 58.63 153.19 59.31 C153.97 59.62 154.75 59.93 155.56 60.25 C158.19 61.31 158.19 61.31 160.19 62.31 C160.19 62.97 160.19 63.63 160.19 64.31 C160.79 64.42 161.38 64.52 162 64.62 C164.53 65.42 165.34 66.47 167.19 68.31 C167.97 68.6 168.75 68.89 169.56 69.19 C172.89 70.61 174.7 72.7 177.19 75.31 C179.13 76.9 180.84 78.15 183.12 79.19 C186 80.75 187.95 82.95 190.19 85.31 C190.85 85.97 191.51 86.63 192.19 87.31 C192.76 88.12 193.34 88.92 193.94 89.75 C196.05 92.49 196.05 92.49 199.25 93.81 C202.62 95.53 203.43 97.05 205.19 100.31 C205.85 100.31 206.51 100.31 207.19 100.31 C209.49 102.93 211.38 105.62 213.25 108.56 C214.96 111.57 214.96 111.57 218.19 112.31 C218.19 112.97 218.19 113.63 218.19 114.31 C220.64 116.91 223.23 119.35 225.81 121.81 C228.1 124.22 229.52 126.47 231.19 129.31 C232.01 130.3 232.84 131.29 233.69 132.31 C236.19 135.31 236.19 135.31 237.56 137.62 C239.61 141.01 242.06 143.97 244.57 147.03 C246.24 149.39 247.19 151.61 248.19 154.31 C249.14 155.68 250.15 157.01 251.19 158.31 C257.04 166.01 261.09 173.89 263.51 183.28 C264.08 185.51 264.08 185.51 266.19 187.31 C266.7 188.88 267.15 190.47 267.56 192.06 C268.8 196.45 270.59 199.55 273.19 203.31 C273.92 205.63 274.59 207.96 275.19 210.31 C276.05 212.62 276.98 214.87 278.02 217.11 C278.79 218.82 279.49 220.56 280.19 222.31 C279.86 222.97 279.53 223.63 279.19 224.31 C279.81 224.52 280.42 224.73 281.06 224.94 C284.07 226.88 284.41 228.9 285.19 232.31 C284.86 232.97 284.53 233.63 284.19 234.31 C284.81 234.52 285.42 234.73 286.06 234.94 C289.07 236.88 289.41 238.9 290.19 242.31 C289.86 242.97 289.53 243.63 289.19 244.31 C289.8 244.55 290.4 244.79 291.03 245.03 C293.72 246.63 294.37 248 295.69 250.81 C296.11 251.7 296.53 252.59 296.96 253.51 C298.49 257.01 299.9 260.55 301.27 264.12 C302.2 266.51 302.2 266.51 304 269.25 C304.39 269.93 304.78 270.61 305.19 271.31 C304.86 272.3 304.53 273.29 304.19 274.31 C304.79 274.58 305.38 274.85 306 275.12 C308.19 276.31 308.19 276.31 309.69 277.88 C311.46 279.58 312.8 279.9 315.19 280.31 C315.19 280.97 315.19 281.63 315.19 282.31 C316.38 282.39 317.58 282.48 318.81 282.56 C323.1 283.07 325.71 284.75 329.19 287.31 C329.85 287.31 330.51 287.31 331.19 287.31 C331.19 287.97 331.19 288.63 331.19 289.31 C331.83 289.42 332.47 289.52 333.12 289.62 C337.25 290.55 341.19 291.93 345.19 293.31 C345.19 293.97 345.19 294.63 345.19 295.31 C346.86 295.75 346.86 295.75 348.56 296.19 C352.19 297.31 352.19 297.31 354.19 299.31 C355.85 300.32 357.52 301.32 359.19 302.31 C363.02 304.97 363.02 304.97 364.19 307.31 C365.18 307.31 366.17 307.31 367.19 307.31 C367.19 307.97 367.19 308.63 367.19 309.31 C368.51 309.64 369.83 309.97 371.19 310.31 C371.19 310.97 371.19 311.63 371.19 312.31 C371.73 312.39 372.28 312.46 372.84 312.54 C376.09 313.61 378.14 315.49 380.75 317.69 C381.7 318.48 382.65 319.27 383.63 320.09 C386.19 322.31 386.19 322.31 387.71 323.91 C389.23 325.46 389.23 325.46 391.56 326.73 C398.19 330.73 403.8 336.79 409.19 342.31 C410.29 343.36 410.29 343.36 411.41 344.44 C412.23 345.22 413.04 346 413.88 346.81 C414.64 347.54 415.41 348.28 416.2 349.03 C419.35 352.65 420.53 356.6 421.19 361.31 C420.19 362.31 420.19 362.31 416.94 362.75 C413.36 363.14 413.36 363.14 410.88 364.25 C403.61 367.12 395.9 367.59 388.17 367.97 C385.16 368.32 382.96 369.14 380.19 370.31 C378.09 370.69 378.09 370.69 376.12 370.88 C371.57 371.38 367.5 372.49 363.12 373.81 C362.27 374.07 361.41 374.33 360.53 374.59 C358.74 375.14 356.96 375.72 355.19 376.31 C356.12 377.63 357.06 378.94 358 380.25 C358.52 380.98 359.04 381.71 359.58 382.46 C361.15 384.58 361.15 384.58 364.19 385.31 C364.19 385.97 364.19 386.63 364.19 387.31 C366.52 388.52 368.68 389.48 371.19 390.31 C371.19 390.97 371.19 391.63 371.19 392.31 C371.76 392.44 372.34 392.56 372.94 392.69 C375.21 393.32 377.11 394.2 379.19 395.31 C379.19 395.97 379.19 396.63 379.19 397.31 C379.74 397.41 380.29 397.52 380.86 397.62 C388.58 399.91 395.08 405.72 400.34 411.61 C402.48 413.58 404.5 414.27 407.19 415.31 C409.74 418.05 411.83 420.69 413.69 423.94 C415.48 426.78 417.56 428.22 420.19 430.31 C422.01 432.29 423.75 434.32 425.49 436.37 C427.28 438.48 427.28 438.48 429.88 440.88 C433.72 444.93 436.19 448.55 436.19 454.31 C431.95 452.9 429.13 450.11 425.75 447.25 C423.21 445.21 423.21 445.21 420.12 443.81 C417.11 442.27 415.52 440.72 413.19 438.31 C407.84 434.16 402.35 430.74 396.08 428.13 C391.8 426.29 387.64 424.22 383.69 421.75 C380.87 420.13 378.03 419.1 374.96 418.06 C373.19 417.31 373.19 417.31 371.19 415.31 C370.38 415 369.58 414.69 368.75 414.38 C366.13 413.29 365.11 412.32 363.19 410.31 C362.47 409.88 361.74 409.45 361 409 C354.26 404.95 347.75 399.88 342.19 394.31 C341.71 393.85 341.24 393.38 340.75 392.9 C339.17 391.29 337.67 389.64 336.19 387.94 C335.69 387.37 335.2 386.81 334.69 386.23 C331.7 382.41 329.49 378.16 327.38 373.81 C326.91 372.89 326.45 371.98 325.98 371.03 C325.19 368.31 325.19 368.31 325.66 365.6 C327.79 362.41 329.7 362.13 333.38 361.19 C337.04 360.19 340.34 359.25 343.81 357.69 C347.81 356.06 351.68 355.4 355.93 354.74 C358.15 354.54 358.15 354.54 359.19 353.31 C360.82 353.09 362.46 352.92 364.1 352.78 C365.09 352.69 366.08 352.6 367.1 352.51 C368.14 352.43 369.18 352.34 370.25 352.25 C371.82 352.11 371.82 352.11 373.42 351.97 C376.01 351.75 378.6 351.53 381.19 351.31 C381.19 350.98 381.19 350.65 381.19 350.31 C386.14 350.31 391.09 350.31 396.19 350.31 C395.09 345.92 394.78 345.59 391.19 343.31 C389.7 342.45 388.2 341.62 386.69 340.81 C383.64 339.18 380.93 337.41 378.19 335.31 C377.44 334.88 376.7 334.45 375.94 334 C372.99 332.19 370.33 330.16 367.59 328.06 C363.7 325.23 359.61 322.7 355.53 320.14 C354.76 319.54 353.98 318.94 353.19 318.31 C353.19 317.32 353.19 316.33 353.19 315.31 C352.2 315.64 351.21 315.97 350.19 316.31 C348.39 315.39 348.39 315.39 346.44 314 C342.76 311.56 339.47 310.44 335.19 309.31 C332.96 308.36 330.78 307.35 328.59 306.31 C324.36 304.56 319.94 303.5 315.51 302.38 C314.31 302.07 313.11 301.76 311.88 301.44 C310.66 301.13 309.45 300.82 308.2 300.51 C305.19 299.31 305.19 299.31 303.77 297.18 C303.58 296.56 303.39 295.95 303.19 295.31 C302.2 295.64 301.21 295.97 300.19 296.31 C296.68 294.85 293.51 293.4 291.19 290.31 C291.19 289.32 291.19 288.33 291.19 287.31 C290.53 286.98 289.87 286.65 289.19 286.31 C285.72 283.71 285.19 280.39 284.19 276.31 C283.53 276.31 282.87 276.31 282.19 276.31 C281.8 275.36 281.4 274.41 281 273.44 C279.71 270.42 278.3 267.49 276.81 264.56 C269.1 249.23 269.1 249.23 268.19 242.31 C267.53 241.98 266.87 241.65 266.19 241.31 C262.9 236.21 260.92 231.11 259.19 225.31 C258.53 225.31 257.87 225.31 257.19 225.31 C257.05 224.6 256.92 223.88 256.78 223.14 C256.21 220.41 255.53 217.75 254.75 215.06 C254.38 213.76 254.38 213.76 254 212.42 C253.39 210.13 253.39 210.13 251.19 209.31 C251.19 208.32 251.19 207.33 251.19 206.31 C250.53 206.31 249.87 206.31 249.19 206.31 C248.59 204.59 248.59 204.59 247.98 202.84 C247.45 201.31 246.91 199.78 246.38 198.25 C245.98 197.12 245.98 197.12 245.58 195.97 C242.86 188.2 239.55 180.89 235.69 173.62 C235.3 172.88 234.91 172.13 234.5 171.37 C232.61 167.78 230.64 164.55 228.19 161.31 C228.19 160.65 228.19 159.99 228.19 159.31 C227.53 158.98 226.87 158.65 226.19 158.31 C225.14 156.93 224.14 155.51 223.19 154.06 C222.67 153.29 222.16 152.53 221.62 151.73 C220.19 149.31 220.19 149.31 219.12 146.58 C218.41 144.15 218.41 144.15 216.19 143.31 C211.19 137.72 211.19 137.72 211.19 135.31 C210.53 134.98 209.87 134.65 209.19 134.31 C208.2 133.24 207.24 132.13 206.31 131 C204.54 128.88 202.8 126.93 200.81 125 C199.19 123.31 199.19 123.31 199.19 121.31 C198.2 120.98 197.21 120.65 196.19 120.31 C195 118.25 195 118.25 194.19 116.31 C193.53 116.31 192.87 116.31 192.19 116.31 C190.56 114.94 190.56 114.94 189.19 113.31 C189.19 112.65 189.19 111.99 189.19 111.31 C188.53 111.31 187.87 111.31 187.19 111.31 C185.56 109.94 185.56 109.94 184.19 108.31 C184.19 107.65 184.19 106.99 184.19 106.31 C183.63 106.08 183.07 105.85 182.49 105.62 C179.57 103.96 177.63 101.87 175.31 99.44 C171.38 95.37 171.38 95.37 166.88 92 C163.87 90.11 161.69 87.81 159.19 85.31 C158.2 84.98 157.21 84.65 156.19 84.31 C156.19 83.65 156.19 82.99 156.19 82.31 C155.64 82.23 155.09 82.14 154.53 82.05 C151.43 81.07 149.34 79.4 146.75 77.44 C140.53 72.73 140.53 72.73 133.56 69.31 C131.07 68.26 130.03 67.23 128.19 65.31 C126.53 64.29 124.87 63.29 123.19 62.31 C122.86 61.98 122.53 61.65 122.19 61.31 C121.2 61.81 121.2 61.81 120.19 62.31 C119.86 61.65 119.53 60.99 119.19 60.31 C117.4 59.52 117.4 59.52 115.21 58.91 C114.4 58.66 113.58 58.41 112.74 58.15 C111.87 57.89 111.01 57.64 110.12 57.38 C108.45 56.87 106.77 56.36 105.09 55.85 C104.26 55.6 103.43 55.35 102.57 55.09 C100.4 54.38 98.36 53.55 96.26 52.66 C91.31 50.75 86.31 50.82 81.06 50.75 C66.36 50.48 66.36 50.48 63.19 47.31 C60.52 47.17 57.86 47.27 55.19 47.31 C55.19 46.65 55.19 45.99 55.19 45.31 C54.65 45.06 54.12 44.82 53.56 44.56 C49.74 42.55 46.22 40.41 43.25 37.25 C41.04 35.18 38.91 34.2 36.12 33.09 C31.74 31.32 27.54 29.13 23.5 26.69 C21.19 25.22 21.19 25.22 18.44 24.31 C17.7 23.98 16.95 23.65 16.19 23.31 C15.69 21.83 15.69 21.83 15.19 20.31 C14.23 20.65 14.23 20.65 13.25 21 C9.4 21.39 6.91 20.33 3.37 18.91 C-0.63 17.82 -4.14 19.67 -7.81 21.31 C-10.22 23.29 -10.22 23.29 -10.12 27.12 C-10.03 30.98 -9.05 33.13 -6.81 36.31 C-6.54 37.08 -6.28 37.84 -6 38.62 C-4.55 41.91 -2.56 44.44 -0.35 47.25 C1.19 49.31 1.19 49.31 2.64 51.76 C4.25 54.42 6.04 56.77 8 59.19 C8.7 60.06 9.4 60.92 10.12 61.82 C11.9 63.96 13.71 66.05 15.56 68.12 C17.82 70.72 19.07 73.03 20.19 76.31 C20.7 77.16 21.22 78 21.75 78.88 C23.07 81.11 23.57 82.84 24.19 85.31 C25.18 85.81 25.18 85.81 26.19 86.31 C25.86 86.97 25.53 87.63 25.19 88.31 C25.52 88.64 25.85 88.97 26.19 89.31 C28.43 91.56 28.83 93.31 29.62 96.32 C30.2 98.37 30.92 100.32 31.69 102.31 C33.08 105.93 34.12 109.59 35.19 113.31 C35.68 114.65 36.18 115.98 36.69 117.31 C38.08 120.93 39.12 124.59 40.19 128.31 C41.15 130.99 42.17 133.65 43.19 136.31 C44.44 139.69 44.44 139.69 45.19 142.31 C44.86 142.97 44.53 143.63 44.19 144.31 C45.12 144.65 45.12 144.65 46.06 145 C48.83 146.71 49.09 148.31 50.19 151.31 C51.17 152.33 52.17 153.33 53.19 154.31 C53.62 155.07 54.05 155.84 54.5 156.62 C56.87 160.39 59.99 163.1 63.23 166.13 C65.22 168.35 65.63 169.47 66.19 172.31 C66.85 172.64 67.51 172.97 68.19 173.31 C68.19 176.61 68.19 179.91 68.19 183.31 C67.2 183.64 66.21 183.97 65.19 184.31 C64.69 187.28 64.69 187.28 64.19 190.31 C64.85 190.64 65.51 190.97 66.19 191.31 C65.57 192.63 64.94 193.94 64.31 195.25 C63.96 195.98 63.62 196.71 63.26 197.46 C62.19 199.31 62.19 199.31 60.19 200.31 C59.95 202.37 59.72 204.43 59.54 206.5 C58.87 211.86 57.48 217.08 56.19 222.31 C56.01 223.04 55.84 223.76 55.66 224.51 C55.23 226.13 54.72 227.72 54.19 229.31 C54.08 231.78 54.02 234.22 54.02 236.68 C54.02 237.4 54.01 238.12 54.01 238.86 C54 240.38 54 241.9 54 243.42 C54 245.74 53.98 248.06 53.96 250.38 C53.96 251.85 53.96 253.33 53.96 254.81 C53.95 255.85 53.95 255.85 53.94 256.9 C53.95 260.59 54.29 263.14 56.19 266.31 C56.31 268.38 56.31 268.38 56.19 270.44 C56.19 271.72 56.19 273 56.19 274.31 C56.85 274.97 57.51 275.63 58.19 276.31 C58.57 278.62 58.69 280.89 58.84 283.22 C59.01 285.53 59.01 285.53 61.19 287.31 C61.72 288.9 62.2 290.51 62.62 292.12 C64.68 299.21 68.41 305.56 74.19 310.31 C76.84 310.62 76.84 310.62 79.19 310.31 C79.17 309.1 79.15 307.88 79.12 306.62 C79.07 303.36 79.53 300.51 80.19 297.31 C80.58 294.55 80.92 291.77 81.25 289 C81.34 288.26 81.43 287.52 81.53 286.76 C81.75 284.94 81.97 283.13 82.19 281.31 C82.85 281.31 83.51 281.31 84.19 281.31 C83.69 279.83 83.69 279.83 83.19 278.31 C83.62 272.84 85.15 268.35 87.19 263.31 C87.85 263.31 88.51 263.31 89.19 263.31 C89.44 262.44 89.69 261.57 89.95 260.67 C91.25 257.15 92.84 254.63 95.06 251.62 C95.74 250.69 96.42 249.76 97.12 248.8 C99.03 246.5 100.6 244.8 103.19 243.31 C106.19 244.31 106.19 244.31 107.25 245.88 C108.31 248.63 108.95 251.42 109.62 254.29 C110.43 257.16 111.84 259.67 113.19 262.31 C113.4 263.55 113.4 263.55 113.62 264.81 C114.39 268.21 116.23 270.46 118.19 273.31 C118.88 274.97 119.54 276.64 120.19 278.31 C120.68 279.14 121.18 279.96 121.69 280.81 C123.16 283.26 124.13 285.67 125.19 288.31 C125.68 289.14 126.18 289.96 126.69 290.81 C128.19 293.31 128.19 293.31 129.19 295.94 C130.01 298.33 130.01 298.33 131.69 299.75 C133.85 302 134.43 304.33 135.19 307.31 C134.86 307.97 134.53 308.63 134.19 309.31 C135.08 309.62 135.08 309.62 136 309.94 C139.03 311.84 139.64 314.09 141.19 317.31 C143.76 321.04 146.57 324.56 149.44 328.06 C151.04 330.12 152.09 331.97 153.19 334.31 C154.72 337.1 156.12 339.24 158.38 341.5 C158.97 342.1 159.57 342.7 160.19 343.31 C160.19 343.97 160.19 344.63 160.19 345.31 C160.85 345.31 161.51 345.31 162.19 345.31 C165.19 349.7 165.19 349.7 165.19 352.31 C166.18 352.64 167.17 352.97 168.19 353.31 C172.96 357.63 172.96 357.63 174.19 361.31 C174.85 361.31 175.51 361.31 176.19 361.31 C177.18 362.8 177.18 362.8 178.19 364.31 C177.86 365.3 177.53 366.29 177.19 367.31 C176.02 366.53 174.85 365.74 173.69 364.94 C172.71 364.28 172.71 364.28 171.72 363.6 C171.21 363.18 170.71 362.75 170.19 362.31 C170.19 361.65 170.19 360.99 170.19 360.31 C169.2 359.98 168.21 359.65 167.19 359.31 C167.19 358.65 167.19 357.99 167.19 357.31 C166.2 356.98 165.21 356.65 164.19 356.31 C162.81 354.68 161.48 353.01 160.19 351.31 C158.32 349.11 157.06 348.26 154.39 347.02 C151.03 345.23 148.93 343.37 146.3 340.64 C145.42 339.75 144.55 338.86 143.65 337.94 C142.75 337.01 141.86 336.08 140.94 335.12 C139.15 333.27 137.35 331.43 135.55 329.58 C134.76 328.76 133.97 327.94 133.16 327.1 C131.38 325.09 131.38 325.09 129.19 325.31 C128.14 323.67 127.15 322 126.19 320.31 C124.87 318.47 123.54 316.63 122.19 314.81 C115.67 306.03 115.67 306.03 114.12 300.56 C113.82 299.49 113.51 298.42 113.19 297.31 C112.53 296.98 111.87 296.65 111.19 296.31 C109.73 293.58 108.42 290.81 107.12 288 C106.29 286.13 106.29 286.13 104.19 285.31 C104.23 286.38 104.27 287.46 104.31 288.56 C104.2 291.97 103.97 293.52 102.19 296.31 C101.53 296.31 100.87 296.31 100.19 296.31 C100.22 297.46 100.26 298.6 100.29 299.79 C100.32 301.32 100.35 302.85 100.38 304.38 C100.4 305.13 100.43 305.88 100.45 306.65 C100.52 312.01 99.58 315.52 97.19 320.31 C96.84 321.24 96.49 322.17 96.12 323.12 C95.19 325.31 95.19 325.31 93.19 327.31 C91.87 327.31 90.55 327.31 89.19 327.31 C89.19 327.97 89.19 328.63 89.19 329.31 C83.13 331.02 76.79 331.41 71 328.69 C64.38 324.91 59.82 320.36 56.19 313.69 C54.58 310.28 54.58 310.28 52.19 309.31 C52.06 308.76 51.94 308.2 51.81 307.62 C51.28 305.12 51.28 305.12 49.31 302.69 C46.6 298.38 45.48 294.21 44.19 289.31 C43.84 288.08 43.5 286.85 43.15 285.58 C40.26 275.09 39.01 265.26 38.58 254.43 C38.53 253.14 38.53 253.14 38.47 251.83 C38.44 251.06 38.41 250.29 38.38 249.49 C38.19 247.34 37.77 245.39 37.19 243.31 C37.85 243.31 38.51 243.31 39.19 243.31 C39.18 242.73 39.18 242.15 39.17 241.56 C39.15 238.91 39.14 236.27 39.12 233.62 C39.12 232.71 39.11 231.8 39.1 230.86 C39.1 229.98 39.09 229.09 39.09 228.18 C39.08 227.36 39.08 226.55 39.07 225.72 C39.19 223.16 39.63 220.81 40.19 218.31 C40.35 217.51 40.52 216.71 40.69 215.89 C40.85 215.12 41.02 214.35 41.19 213.56 C41.35 212.78 41.52 212.01 41.69 211.2 C42.19 209.31 42.19 209.31 43.19 208.31 C43.53 205.98 43.87 203.65 44.19 201.31 C44.52 200.32 44.85 199.33 45.19 198.31 C45.71 195.97 46.2 193.62 46.69 191.27 C47.19 189.31 47.19 189.31 48.19 188.31 C48.44 186.28 48.7 184.26 48.91 182.22 C49.19 180.31 49.19 180.31 50.19 178.31 C50.19 177.32 50.19 176.33 50.19 175.31 C49.61 175.09 49.04 174.87 48.45 174.64 C45.5 172.91 44.05 170.83 42.06 168.06 C41.38 167.13 40.7 166.2 39.99 165.23 C38.18 162.31 37.13 159.61 36.19 156.31 C35.53 156.31 34.87 156.31 34.19 156.31 C34.06 155.34 33.94 154.37 33.81 153.38 C33.61 152.36 33.4 151.35 33.19 150.31 C32.53 149.98 31.87 149.65 31.19 149.31 C31.19 148.32 31.19 147.33 31.19 146.31 C30.53 146.31 29.87 146.31 29.19 146.31 C28.87 145.43 28.56 144.55 28.23 143.64 C26.89 139.86 25.54 136.09 24.19 132.31 C23.65 130.81 23.65 130.81 23.11 129.29 C21.54 124.94 19.91 120.64 18.12 116.38 C16.64 112.73 15.59 109.14 14.69 105.31 C13.05 98.42 11.01 91.74 6.94 85.88 C5.19 83.31 5.19 83.31 5.19 80.31 C3.87 79.65 2.55 78.99 1.19 78.31 C1.19 77.32 1.19 76.33 1.19 75.31 C0.53 74.98 -0.13 74.65 -0.81 74.31 C-1.75 73.18 -2.64 72 -3.5 70.81 C-5.77 67.72 -8.08 64.65 -10.44 61.62 C-11.02 60.87 -11.61 60.12 -12.21 59.34 C-13.45 57.77 -14.72 56.22 -16 54.69 C-21.81 47.07 -21.81 47.07 -21.81 42.31 C-22.47 41.98 -23.13 41.65 -23.81 41.31 C-25.75 37.55 -26.01 34.5 -25.81 30.31 C-26.47 29.98 -27.13 29.65 -27.81 29.31 C-27.94 22.56 -27.94 22.56 -26.81 20.31 C-26.67 19.49 -26.52 18.66 -26.38 17.81 C-25.81 15.31 -25.81 15.31 -23.81 13.31 C-22.31 11.58 -20.83 9.82 -19.35 8.07 C-18.84 7.49 -18.33 6.91 -17.81 6.31 C-17.16 5.55 -17.16 5.55 -16.5 4.78 C-11.35 0.3 -6.49 -0.15 0 0 Z M264.19 187.31 C265.19 191.31 265.19 191.31 265.19 191.31 Z M54.19 216.31 C55.19 220.31 55.19 220.31 55.19 220.31 Z M51.19 228.31 C51.19 231.61 51.19 234.91 51.19 238.31 C51.52 238.31 51.85 238.31 52.19 238.31 C52.52 235.01 52.85 231.71 53.19 228.31 C52.53 228.31 51.87 228.31 51.19 228.31 Z M51.19 248.31 C51.19 252.6 51.19 256.89 51.19 261.31 C51.52 261.31 51.85 261.31 52.19 261.31 C52.19 257.02 52.19 252.73 52.19 248.31 C51.86 248.31 51.53 248.31 51.19 248.31 Z M54.19 269.31 C54.19 270.96 54.19 272.61 54.19 274.31 C54.52 274.31 54.85 274.31 55.19 274.31 C55.19 272.66 55.19 271.01 55.19 269.31 C54.86 269.31 54.53 269.31 54.19 269.31 Z M59.19 287.31 C60.19 291.31 60.19 291.31 60.19 291.31 Z M96.19 314.31 C97.19 317.31 97.19 317.31 97.19 317.31 Z M146.19 327.31 C147.19 329.31 147.19 329.31 147.19 329.31 Z M413.19 360.31 C413.19 360.64 413.19 360.97 413.19 361.31 C415.17 361.31 417.15 361.31 419.19 361.31 C419.19 360.98 419.19 360.65 419.19 360.31 C417.21 360.31 415.23 360.31 413.19 360.31 Z " fill="#005F89" transform="translate(822.8125,316.6875)"/>
<path d="M0 0 C5.2 -0.02 10.39 -0.04 15.59 -0.05 C17.36 -0.06 19.12 -0.07 20.89 -0.08 C23.43 -0.09 25.97 -0.09 28.52 -0.1 C29.3 -0.1 30.09 -0.11 30.91 -0.11 C34.45 -0.11 37.6 0.05 41 1 C41 157 41 157 39 160 C39 161.32 39 162.64 39 164 C36.86 168.45 33.64 171.73 30.19 175.19 C29.68 175.72 29.17 176.25 28.65 176.8 C25.35 180.13 22.68 181.91 18 183 C17.34 183 16.68 183 16 183 C15.34 183.99 14.68 184.98 14 186 C10.06 187.34 6.09 188.26 2 189 C2 188.34 2 187.68 2 187 C1.01 187 0.02 187 -1 187 C-1 187.66 -1 188.32 -1 189 C-9.07 192.07 -16.48 192.42 -25.05 192.36 C-26.43 192.36 -27.82 192.36 -29.21 192.36 C-32.95 192.37 -36.68 192.35 -40.42 192.34 C-44.34 192.32 -48.26 192.32 -52.18 192.32 C-58.75 192.32 -65.32 192.3 -71.89 192.28 C-80.32 192.25 -88.76 192.24 -97.2 192.24 C-104.46 192.23 -111.72 192.22 -118.98 192.21 C-121.31 192.2 -123.65 192.2 -125.98 192.2 C-129.64 192.19 -133.3 192.18 -136.95 192.17 C-138.94 192.16 -140.93 192.16 -142.91 192.16 C-144.09 192.15 -145.26 192.15 -146.47 192.14 C-147.5 192.14 -148.52 192.13 -149.58 192.13 C-152 192 -152 192 -154 191 C-154.33 182.42 -154.66 173.84 -155 165 C-154.34 165 -153.68 165 -153 165 C-152.67 164.01 -152.34 163.02 -152 162 C-151.34 162 -150.69 162 -150.01 162 C-134.01 162.02 -118.01 162.04 -102.01 162.05 C-94.27 162.06 -86.53 162.06 -78.79 162.08 C-72.05 162.09 -65.3 162.09 -58.55 162.09 C-54.98 162.1 -51.41 162.1 -47.84 162.11 C-43.85 162.11 -39.86 162.11 -35.86 162.11 C-34.1 162.12 -34.1 162.12 -32.31 162.12 C-26.12 162.12 -20.14 161.82 -14 161 C-14 160.67 -14 160.34 -14 160 C-12.61 159.6 -12.61 159.6 -11.19 159.19 C-8.17 158.06 -7.08 157.29 -5 155 C-4.34 155 -3.68 155 -3 155 C-3 154.01 -3 153.02 -3 152 C-2.34 152 -1.68 152 -1 152 C-1.33 146.39 -1.66 140.78 -2 135 C-5.96 134.67 -9.92 134.34 -14 134 C-14 133.34 -14 132.68 -14 132 C-15.58 132.02 -15.58 132.02 -17.18 132.04 C-27.13 132.18 -37.07 132.32 -47.02 132.44 C-52.13 132.51 -57.24 132.58 -62.35 132.65 C-67.29 132.72 -72.23 132.78 -77.17 132.84 C-79.05 132.87 -80.93 132.89 -82.8 132.92 C-109.85 133.32 -109.85 133.32 -116 130 C-118.32 129.3 -120.66 128.64 -123 128 C-124.31 127.63 -125.63 127.25 -126.94 126.88 C-127.95 126.59 -128.96 126.3 -130 126 C-130 125.34 -130 124.68 -130 124 C-130.72 123.9 -131.44 123.8 -132.19 123.7 C-139.62 121.85 -145.53 115.96 -150 110 C-150.5 109.58 -151.01 109.16 -151.52 108.73 C-158.68 100.34 -156.42 81.89 -156.36 71.61 C-156.36 69.69 -156.36 67.77 -156.36 65.84 C-156.36 61.85 -156.35 57.86 -156.34 53.86 C-156.31 48.74 -156.31 43.62 -156.32 38.5 C-156.32 34.55 -156.32 30.59 -156.31 26.64 C-156.3 24.75 -156.3 22.86 -156.3 20.97 C-156.3 18.34 -156.29 15.72 -156.27 13.09 C-156.28 12.31 -156.28 11.53 -156.28 10.73 C-156.24 6.95 -156.15 5.22 -154 2 C-151.06 1.72 -148.32 1.63 -145.38 1.67 C-144.1 1.67 -144.1 1.67 -142.79 1.68 C-140.97 1.68 -139.16 1.7 -137.35 1.72 C-134.58 1.75 -131.8 1.76 -129.03 1.77 C-127.27 1.77 -125.51 1.79 -123.75 1.8 C-122.92 1.8 -122.09 1.81 -121.23 1.81 C-117.91 1.85 -115.17 1.94 -112 3 C-112 4.19 -112 5.39 -112 6.62 C-111.98 17.86 -111.94 29.1 -111.87 40.34 C-111.83 46.12 -111.81 51.9 -111.8 57.68 C-111.8 63.26 -111.77 68.83 -111.73 74.41 C-111.71 76.54 -111.71 78.67 -111.71 80.8 C-111.72 83.78 -111.69 86.75 -111.66 89.73 C-111.67 91.06 -111.67 91.06 -111.69 92.41 C-111.61 97.36 -111.61 97.36 -108.9 101.39 C-101.92 105.27 -97.15 106.45 -89.21 106.43 C-88.25 106.44 -87.3 106.45 -86.31 106.46 C-83.17 106.49 -80.02 106.5 -76.88 106.51 C-74.69 106.53 -72.5 106.55 -70.32 106.57 C-64.58 106.61 -58.83 106.64 -53.09 106.67 C-47.22 106.7 -41.36 106.75 -35.49 106.79 C-24 106.88 -12.5 106.94 -1 107 C-1 105.69 -1 104.38 -1.01 103.03 C-1.03 90.7 -1.04 78.36 -1.05 66.03 C-1.06 59.69 -1.06 53.35 -1.08 47.01 C-1.09 40.9 -1.09 34.78 -1.09 28.67 C-1.1 26.33 -1.1 23.99 -1.11 21.66 C-1.11 18.39 -1.11 15.13 -1.11 11.87 C-1.12 10.89 -1.12 9.92 -1.12 8.91 C-1.12 8.03 -1.12 7.14 -1.12 6.23 C-1.12 5.07 -1.12 5.07 -1.12 3.89 C-1 2 -1 2 0 0 Z " fill="#005F89" transform="translate(493,770)"/>
<path d="M0 0 C1.72 -0.01 1.72 -0.01 3.48 -0.01 C4.73 -0.01 5.98 -0 7.26 0 C8.6 0 9.94 0 11.28 -0 C14.89 -0.01 18.51 0 22.13 0.01 C25.92 0.02 29.71 0.02 33.5 0.02 C39.86 0.02 46.22 0.03 52.58 0.04 C59.93 0.06 67.29 0.06 74.65 0.06 C81.72 0.06 88.8 0.07 95.88 0.07 C98.89 0.08 101.9 0.08 104.91 0.08 C109.11 0.08 113.31 0.09 117.51 0.1 C119.4 0.1 119.4 0.1 121.32 0.1 C122.45 0.1 123.59 0.11 124.77 0.11 C125.76 0.12 126.75 0.12 127.78 0.12 C130.13 0.25 130.13 0.25 132.13 1.25 C132.13 9.83 132.13 18.41 132.13 27.25 C128.51 27.27 124.89 27.29 121.16 27.31 C109.22 27.37 97.28 27.45 85.35 27.53 C78.11 27.58 70.87 27.63 63.62 27.67 C57.31 27.7 51 27.74 44.7 27.79 C41.35 27.82 38.01 27.84 34.67 27.85 C30.94 27.87 27.21 27.9 23.49 27.93 C22.37 27.93 21.26 27.93 20.12 27.93 C19.1 27.95 18.09 27.96 17.05 27.97 C16.16 27.97 15.28 27.98 14.37 27.99 C11.85 28.11 11.85 28.11 9.13 30.25 C7.01 30.59 7.01 30.59 4.69 30.75 C1.3 30.98 -0.86 31.71 -3.87 33.25 C-4.86 33.25 -5.85 33.25 -6.87 33.25 C-9.21 36.91 -9.18 40.47 -9.17 44.68 C-9.18 45.75 -9.18 45.75 -9.18 46.85 C-9.19 48.36 -9.19 49.86 -9.19 51.37 C-9.18 53.67 -9.21 55.97 -9.23 58.27 C-9.23 59.74 -9.24 61.21 -9.23 62.68 C-9.24 63.36 -9.25 64.05 -9.26 64.75 C-9.22 69.09 -8.51 71.79 -5.87 75.25 C-0.72 78.9 3.93 80.5 10.23 80.44 C11.44 80.44 12.65 80.43 13.89 80.42 C15.19 80.41 16.49 80.39 17.83 80.37 C19.19 80.36 20.55 80.36 21.9 80.35 C26.93 80.32 31.96 80.27 36.99 80.23 C41.24 80.19 45.49 80.16 49.74 80.14 C51.72 80.12 53.69 80.1 55.67 80.07 C62.04 80.04 67.94 80.31 74.15 81.78 C76.62 82.36 79.04 82.55 81.57 82.68 C89.67 83.35 97.14 85.37 104.28 89.28 C106.18 90.32 106.18 90.32 108.52 91.14 C117.49 94.94 124.67 101.69 129.18 110.25 C130.55 114.58 130.41 118.71 130.39 123.22 C130.4 124.18 130.4 125.14 130.4 126.13 C130.4 128.15 130.4 130.18 130.39 132.2 C130.38 135.3 130.39 138.4 130.4 141.5 C130.4 143.47 130.4 145.44 130.39 147.41 C130.4 148.33 130.4 149.26 130.41 150.21 C130.4 151.51 130.4 151.51 130.39 152.83 C130.39 153.59 130.38 154.35 130.38 155.13 C130.09 157.55 129.32 159.14 128.13 161.25 C127.76 161.99 127.39 162.73 127 163.5 C126.57 164.36 126.57 164.36 126.13 165.25 C126.13 164.59 126.13 163.93 126.13 163.25 C125.14 163.25 124.15 163.25 123.13 163.25 C123.13 164.24 123.13 165.23 123.13 166.25 C123.79 166.58 124.45 166.91 125.13 167.25 C122.49 169.89 119.85 172.53 117.13 175.25 C116.8 174.59 116.47 173.93 116.13 173.25 C115.14 173.25 114.15 173.25 113.13 173.25 C113.13 174.24 113.13 175.23 113.13 176.25 C113.79 176.58 114.45 176.91 115.13 177.25 C110.65 180.39 106.08 182.92 101.13 185.25 C100.32 185.64 99.52 186.03 98.69 186.43 C95.54 187.43 92.51 187.68 89.21 187.9 C86.83 188.15 86.83 188.15 84.13 190.25 C81.6 190.49 81.6 190.49 78.53 190.49 C76.78 190.49 76.78 190.49 75 190.5 C73.08 190.49 73.08 190.49 71.12 190.47 C69.76 190.47 68.4 190.47 67.04 190.48 C63.35 190.48 59.65 190.46 55.96 190.45 C52.1 190.44 48.24 190.44 44.38 190.43 C37.07 190.43 29.76 190.41 22.45 190.39 C14.13 190.37 5.81 190.36 -2.51 190.35 C-19.63 190.33 -36.75 190.29 -53.87 190.25 C-54.76 186.94 -54.99 184.05 -54.97 180.61 C-54.97 179.54 -54.96 178.47 -54.96 177.36 C-54.95 176.25 -54.94 175.14 -54.93 174 C-54.93 172.87 -54.92 171.74 -54.92 170.58 C-54.91 167.8 -54.89 165.03 -54.87 162.25 C-54.21 162.58 -53.55 162.91 -52.87 163.25 C-52.21 162.92 -51.55 162.59 -50.87 162.25 C-49.34 162.15 -47.8 162.11 -46.26 162.1 C-45.28 162.09 -44.31 162.08 -43.31 162.07 C-42.24 162.07 -41.17 162.06 -40.06 162.06 C-38.94 162.05 -37.81 162.04 -36.65 162.03 C-34.2 162.02 -31.75 162 -29.3 161.99 C-25.41 161.97 -21.53 161.94 -17.64 161.91 C-9.39 161.85 -1.13 161.8 7.13 161.75 C16.67 161.69 26.21 161.63 35.75 161.56 C39.57 161.53 43.39 161.51 47.21 161.49 C49.57 161.47 51.93 161.45 54.29 161.44 C55.34 161.43 56.39 161.43 57.48 161.42 C63.75 161.37 69.9 160.99 76.13 160.25 C76.13 159.59 76.13 158.93 76.13 158.25 C76.87 158 77.61 157.75 78.38 157.5 C81.33 156.16 82.98 154.64 85.13 152.25 C84.8 151.59 84.47 150.93 84.13 150.25 C84.79 150.25 85.45 150.25 86.13 150.25 C86.13 149.59 86.13 148.93 86.13 148.25 C86.79 148.25 87.45 148.25 88.13 148.25 C88.02 144.18 87.89 140.12 87.75 136.06 C87.71 134.33 87.71 134.33 87.66 132.57 C87.62 131.46 87.58 130.35 87.54 129.2 C87.51 128.18 87.48 127.16 87.45 126.11 C87.12 123.17 86.36 120.93 85.13 118.25 C84.47 118.25 83.81 118.25 83.13 118.25 C82.92 117.65 82.72 117.05 82.5 116.43 C80.21 112.78 76.86 111.68 72.77 110.65 C71.18 110.31 69.58 109.98 67.98 109.68 C66.13 109.25 66.13 109.25 65.13 108.25 C62.99 108.13 60.84 108.08 58.7 108.06 C58.03 108.05 57.35 108.04 56.66 108.03 C55.2 108.02 53.74 108 52.28 107.99 C49.96 107.97 47.65 107.94 45.34 107.91 C40.44 107.85 35.53 107.8 30.63 107.75 C24.95 107.69 19.27 107.63 13.59 107.56 C11.3 107.53 9.02 107.51 6.74 107.49 C5.34 107.47 3.95 107.45 2.56 107.44 C1.34 107.42 0.12 107.41 -1.14 107.4 C-3.87 107.25 -3.87 107.25 -4.87 106.25 C-6.26 106.06 -7.66 105.92 -9.06 105.81 C-12.91 105.42 -16.24 104.65 -19.87 103.25 C-20.63 102.96 -21.4 102.67 -22.18 102.37 C-23.51 101.82 -23.51 101.82 -24.87 101.25 C-25.56 100.96 -26.26 100.67 -26.97 100.37 C-37.13 96.02 -46.43 89.93 -51.63 79.84 C-56.1 68.43 -55.39 56.29 -54.87 44.25 C-54.21 44.25 -53.55 44.25 -52.87 44.25 C-52.88 43.67 -52.89 43.09 -52.91 42.49 C-52.96 37.95 -52.79 33.72 -51.87 29.25 C-51.21 29.25 -50.55 29.25 -49.87 29.25 C-50.2 27.93 -50.53 26.61 -50.87 25.25 C-49.88 24.59 -48.89 23.93 -47.87 23.25 C-47.58 22.48 -47.29 21.72 -47 20.93 C-45.56 17.5 -43.72 15.62 -40.87 13.25 C-39.55 13.25 -38.23 13.25 -36.87 13.25 C-36.87 12.59 -36.87 11.93 -36.87 11.25 C-35.81 9.68 -35.81 9.68 -33.87 8.25 C-31.54 7.89 -29.21 7.55 -26.87 7.25 C-26.54 6.59 -26.21 5.93 -25.87 5.25 C-22.09 3.24 -18.44 2.89 -14.25 2.59 C-11.76 2.31 -11.76 2.31 -9.09 1.24 C-5.85 0.24 -3.37 -0 0 0 Z " fill="#E08E03" transform="translate(618.8711547851563,713.7527618408203)"/>
<path d="M0 0 C1.69 0 3.37 0.01 5.06 0.02 C6.39 0.02 6.39 0.02 7.75 0.02 C10.59 0.03 13.43 0.04 16.28 0.05 C18.2 0.06 20.12 0.06 22.04 0.06 C26.77 0.08 31.49 0.09 36.21 0.11 C38.18 3.41 38.46 5.88 38.45 9.7 C38.45 10.83 38.45 11.97 38.45 13.14 C38.44 14.39 38.43 15.63 38.43 16.91 C38.42 18.22 38.42 19.53 38.42 20.89 C38.42 23.74 38.41 26.59 38.4 29.45 C38.37 33.97 38.37 38.48 38.36 43 C38.35 50.16 38.33 57.31 38.3 64.46 C38.26 77.26 38.22 90.05 38.2 102.84 C38.19 107.33 38.18 111.81 38.16 116.3 C38.15 119.1 38.14 121.9 38.14 124.7 C38.13 126.6 38.12 128.5 38.11 130.41 C37.73 143.83 37.73 143.83 43.41 155.45 C50.93 162.38 63.25 161.27 72.77 161.32 C73.9 161.33 75.04 161.34 76.2 161.35 C79.93 161.38 83.65 161.41 87.37 161.43 C89.96 161.45 92.55 161.47 95.14 161.49 C101.24 161.54 107.35 161.59 113.46 161.63 C120.41 161.68 127.37 161.74 134.32 161.79 C148.62 161.9 162.92 162.01 177.21 162.11 C178.57 164.83 178.33 166.96 178.31 170 C178.31 171.16 178.31 172.33 178.3 173.53 C178.29 174.75 178.29 175.98 178.28 177.24 C178.27 178.47 178.27 179.7 178.26 180.97 C178.25 184.02 178.24 187.07 178.21 190.11 C161.46 190.16 144.71 190.2 127.96 190.22 C120.19 190.23 112.41 190.24 104.63 190.26 C97.85 190.28 91.07 190.3 84.3 190.3 C80.71 190.3 77.12 190.31 73.53 190.32 C69.52 190.34 65.52 190.34 61.51 190.34 C59.72 190.35 59.72 190.35 57.9 190.36 C56.81 190.36 55.72 190.36 54.59 190.35 C53.17 190.36 53.17 190.36 51.72 190.36 C49.08 190.1 47.51 189.38 45.21 188.11 C43.19 188.02 43.19 188.02 41.09 188.24 C36.33 188.36 32.88 187.03 28.58 185.13 C26.47 184.22 24.49 183.6 22.28 183.05 C19.13 182.09 18.35 181.44 16.21 179.11 C15.29 178.66 14.36 178.21 13.4 177.74 C9.27 175.63 5.05 173.33 3.34 168.8 C3.3 168.24 3.26 167.69 3.21 167.11 C2.55 167.11 1.89 167.11 1.21 167.11 C0.39 165.41 -0.42 163.7 -1.22 161.99 C-1.9 160.56 -1.9 160.56 -2.59 159.11 C-4.61 154.04 -4.91 149.15 -4.91 143.74 C-4.92 142.48 -4.92 141.22 -4.92 139.92 C-4.92 138.54 -4.92 137.15 -4.91 135.77 C-4.92 134.3 -4.92 132.84 -4.92 131.37 C-4.92 127.4 -4.92 123.42 -4.92 119.45 C-4.92 115.29 -4.92 111.14 -4.92 106.98 C-4.92 100.01 -4.92 93.03 -4.92 86.06 C-4.91 77.98 -4.91 69.91 -4.92 61.84 C-4.92 54.91 -4.92 47.98 -4.92 41.05 C-4.92 36.91 -4.92 32.77 -4.92 28.63 C-4.92 24.74 -4.92 20.86 -4.92 16.97 C-4.92 15.54 -4.92 14.11 -4.92 12.68 C-4.92 10.74 -4.92 8.79 -4.91 6.85 C-4.91 5.76 -4.91 4.67 -4.91 3.55 C-4.71 -0.44 -4.19 0.13 0 0 Z " fill="#E08E03" transform="translate(1008.785400390625,713.886474609375)"/>
<path d="M0 0 C2.43 -0.36 2.43 -0.36 5.31 -0.31 C6.73 -0.31 6.73 -0.31 8.18 -0.3 C11.11 0.01 13.33 0.78 16 2 C16 2.66 16 3.32 16 4 C16.6 4.23 17.2 4.45 17.81 4.69 C20.68 6.41 21.53 7.99 23 11 C23.36 14.26 23.36 14.26 23.31 17.69 C23.31 18.83 23.3 19.96 23.3 21.14 C23 24 23 24 21 26 C20.01 26 19.02 26 18 26 C18.66 26.33 19.32 26.66 20 27 C20 27.99 20 28.98 20 30 C18.35 30.33 16.7 30.66 15 31 C14.59 30.12 14.17 29.23 13.75 28.32 C9.89 20.23 5.49 13.13 0 6 C-0.66 5.01 -1.32 4.02 -2 3 C-1.34 2.01 -0.68 1.02 0 0 Z " fill="#01638F" transform="translate(891,395)"/>
<path d="M0 0 C16.14 -0.02 32.29 -0.04 48.43 -0.05 C55.92 -0.06 63.42 -0.06 70.92 -0.08 C77.45 -0.09 83.99 -0.09 90.52 -0.09 C93.98 -0.1 97.44 -0.1 100.9 -0.11 C104.77 -0.11 108.64 -0.11 112.5 -0.11 C113.64 -0.12 114.78 -0.12 115.95 -0.12 C122.05 -0.12 127.95 0.2 134 1 C134 1.33 134 1.66 134 2 C119.78 3.33 105.55 3.13 91.29 3.1 C88.62 3.1 85.95 3.09 83.28 3.09 C77.01 3.09 70.74 3.08 64.47 3.07 C57.33 3.06 50.18 3.06 43.03 3.05 C28.36 3.04 13.68 3.02 -1 3 C-0.67 2.01 -0.34 1.02 0 0 Z " fill="#0886BA" transform="translate(343,932)"/>
<path d="M0 0 C37 0 37 0 41 1 C41 52.15 41 103.3 41 156 C40.67 156 40.34 156 40 156 C40 105.51 40 55.02 40 3 C27.46 3 14.92 3 2 3 C1.67 37.32 1.34 71.64 1 107 C0.67 107 0.34 107 0 107 C0 71.69 0 36.38 0 0 Z " fill="#0782B6" transform="translate(493,770)"/>
<path d="M0 0 C2.94 -0.28 5.68 -0.37 8.62 -0.33 C9.9 -0.33 9.9 -0.33 11.21 -0.32 C13.03 -0.32 14.84 -0.3 16.65 -0.28 C19.42 -0.25 22.2 -0.24 24.97 -0.23 C26.73 -0.23 28.49 -0.21 30.25 -0.2 C31.08 -0.2 31.91 -0.19 32.77 -0.19 C36.09 -0.15 38.83 -0.06 42 1 C41.67 1.66 41.34 2.32 41 3 C39.82 2.99 38.65 2.99 37.44 2.98 C33.09 2.97 28.74 2.95 24.39 2.95 C22.51 2.94 20.62 2.93 18.74 2.92 C16.03 2.91 13.33 2.91 10.63 2.9 C9.78 2.9 8.93 2.89 8.06 2.89 C6.04 2.89 4.02 2.94 2 3 C-0.1 5.1 0.81 9.75 0.79 12.65 C0.78 13.56 0.77 14.47 0.76 15.4 C0.73 18.41 0.71 21.43 0.68 24.44 C0.66 26.53 0.64 28.61 0.62 30.69 C0.57 36.19 0.52 41.68 0.47 47.18 C0.42 52.78 0.36 58.39 0.31 63.99 C0.2 74.99 0.1 86 0 97 C-0.33 97 -0.66 97 -1 97 C-1.88 91.71 -2.15 86.62 -2.15 81.27 C-2.15 80.42 -2.15 79.58 -2.16 78.71 C-2.16 75.93 -2.17 73.16 -2.17 70.39 C-2.17 68.46 -2.17 66.52 -2.18 64.59 C-2.18 60.55 -2.19 56.51 -2.19 52.47 C-2.19 47.28 -2.2 42.1 -2.22 36.91 C-2.23 32.93 -2.23 28.94 -2.23 24.95 C-2.23 23.04 -2.23 21.13 -2.24 19.22 C-2.25 16.55 -2.25 13.88 -2.24 11.22 C-2.25 10.42 -2.25 9.63 -2.26 8.82 C-2.24 5.01 -2.17 3.25 0 0 Z " fill="#0474A4" transform="translate(339,772)"/>
<path d="M0 0 C0 0.33 0 0.66 0 1 C-14.68 1.83 -29.3 2.16 -44 2.12 C-45.01 2.12 -46.03 2.12 -47.07 2.12 C-63.73 2.11 -80.36 1.8 -97 1 C-97 0.67 -97 0.34 -97 0 C-64.75 -1.59 -32.24 -1.92 0 0 Z " fill="#0987BC" transform="translate(492,878)"/>
<path d="M0 0 C0.33 0 0.66 0 1 0 C1 55.77 1 111.54 1 169 C0.67 169 0.34 169 0 169 C0 113.23 0 57.46 0 0 Z " fill="#000002" transform="translate(305,735)"/>
<path d="M0 0 C0.33 0 0.66 0 1 0 C1 49.83 1 99.66 1 151 C0.67 151 0.34 151 0 151 C0 101.17 0 51.34 0 0 Z " fill="#000002" transform="translate(535,773)"/>
<path d="M0 0 C6.79 3.17 11.45 8.4 16.22 14.04 C18.51 16.57 21.04 18.67 23.71 20.77 C24.14 21.18 24.56 21.58 25 22 C25 22.66 25 23.32 25 24 C26.32 23.67 27.64 23.34 29 23 C29.27 23.8 29.54 24.61 29.81 25.44 C30.2 26.28 30.6 27.13 31 28 C31.99 28.33 32.98 28.66 34 29 C34 29.66 34 30.32 34 31 C34.72 30.9 35.44 30.79 36.19 30.69 C40.19 31.13 41.46 32.98 44 36 C45.31 38.31 45.31 38.31 46 40 C46.66 40 47.32 40 48 40 C48.66 40.99 49.32 41.98 50 43 C49.67 43.99 49.34 44.98 49 46 C47.83 45.22 46.66 44.42 45.5 43.62 C44.85 43.18 44.2 42.74 43.53 42.29 C43.03 41.86 42.52 41.44 42 41 C42 40.34 42 39.68 42 39 C41.01 38.67 40.02 38.34 39 38 C39 37.34 39 36.68 39 36 C38.01 35.67 37.02 35.34 36 35 C34.63 33.37 33.29 31.7 32 30 C30.14 27.8 28.88 26.94 26.2 25.71 C22.85 23.92 20.74 22.06 18.11 19.33 C17.24 18.44 16.36 17.55 15.46 16.63 C14.57 15.7 13.67 14.77 12.75 13.81 C10.96 11.96 9.16 10.11 7.36 8.27 C6.57 7.45 5.78 6.63 4.97 5.79 C3.2 3.78 3.2 3.78 1 4 C0.67 2.68 0.34 1.36 0 0 Z " fill="#0781B5" transform="translate(951,638)"/>
<path d="M0 0 C0.33 0 0.66 0 1 0 C1 46.2 1 92.4 1 140 C0.67 140 0.34 140 0 140 C0 93.8 0 47.6 0 0 Z " fill="#000002" transform="translate(62,763)"/>
<path d="M0 0 C0.33 0 0.66 0 1 0 C1 44.88 1 89.76 1 136 C0.67 136 0.34 136 0 136 C0 91.12 0 46.24 0 0 Z " fill="#000002" transform="translate(1047,718)"/>
<path d="M0 0 C41.25 0 82.5 0 125 0 C125 0.33 125 0.66 125 1 C83.75 1 42.5 1 0 1 C0 0.67 0 0.34 0 0 Z " fill="#000002" transform="translate(568,905)"/>
<path d="M0 0 C39.27 0 78.54 0 119 0 C119 0.33 119 0.66 119 1 C79.73 1 40.46 1 0 1 C0 0.67 0 0.34 0 0 Z " fill="#000002" transform="translate(631,742)"/>
<path d="M0 0 C5.5 -0.02 11 -0.04 16.5 -0.05 C18.37 -0.06 20.24 -0.07 22.11 -0.08 C24.8 -0.09 27.49 -0.09 30.18 -0.1 C31.01 -0.1 31.85 -0.11 32.71 -0.11 C36.06 -0.11 38.8 -0.07 42 1 C41.67 1.66 41.34 2.32 41 3 C27.33 3 13.67 3 0 3 C0 2.01 0 1.02 0 0 Z " fill="#0883B8" transform="translate(339,772)"/>
<path d="M0 0 C38.28 0 76.56 0 116 0 C116 0.33 116 0.66 116 1 C77.72 1 39.44 1 0 1 C0 0.67 0 0.34 0 0 Z " fill="#000002" transform="translate(1070,905)"/>
<path d="M0 0 C36.96 0 73.92 0 112 0 C112 0.33 112 0.66 112 1 C75.04 1 38.08 1 0 1 C0 0.67 0 0.34 0 0 Z " fill="#E18F03" transform="translate(566,874)"/>
<path d="M0 0 C0.66 0 1.32 0 2 0 C2 0.66 2 1.32 2 2 C2.66 2 3.32 2 4 2 C4 2.66 4 3.32 4 4 C4.99 4.33 5.98 4.66 7 5 C6.67 5.99 6.34 6.98 6 8 C6.66 8.33 7.32 8.66 8 9 C8.33 8.34 8.66 7.68 9 7 C13.51 9.19 15.19 11.34 17 16 C17 17.32 17 18.64 17 20 C13.59 18.86 11.76 17.3 9 15 C8.15 14.36 7.31 13.72 6.44 13.06 C3.01 10.16 0.48 7.61 -0.81 3.25 C-0.87 2.51 -0.94 1.76 -1 1 C-0.67 0.67 -0.34 0.34 0 0 Z " fill="#03577C" transform="translate(1242,751)"/>
<path d="M0 0 C34.65 0 69.3 0 105 0 C105 0.33 105 0.66 105 1 C70.35 1 35.7 1 0 1 C0 0.67 0 0.34 0 0 Z " fill="#E18F03" transform="translate(1078,874)"/>
<path d="M0 0 C0.33 0 0.66 0 1 0 C1 34.65 1 69.3 1 105 C0.67 105 0.34 105 0 105 C0 70.35 0 35.7 0 0 Z " fill="#000002" transform="translate(980,757)"/>
<path d="M0 0 C0.33 0 0.66 0 1 0 C1 31.35 1 62.7 1 95 C0.67 95 0.34 95 0 95 C0 63.65 0 32.3 0 0 Z " fill="#000002" transform="translate(820,761)"/>
<path d="M0 0 C2.9 0.35 3.9 0.89 5.92 3.07 C6.53 3.89 7.13 4.71 7.75 5.56 C8.36 6.39 8.98 7.22 9.61 8.07 C10.07 8.7 10.53 9.34 11 10 C10.34 8.02 9.68 6.04 9 4 C12.72 6.37 16.1 8.65 19 12 C19 12.66 19 13.32 19 14 C19.66 14 20.32 14 21 14 C24 18.38 24 18.38 24 21 C23.01 21 22.02 21 21 21 C18.94 18.62 18.94 18.62 17 16 C15.15 13.87 15.15 13.87 12.64 13.12 C9.63 11.84 7.96 10.33 5.69 8 C4.99 7.3 4.29 6.6 3.57 5.88 C2 4 2 4 2 2 C1.34 2 0.68 2 0 2 C0 1.34 0 0.68 0 0 Z " fill="#00293C" transform="translate(964,648)"/>
<path d="M0 0 C26.4 0 52.8 0 80 0 C80 0.33 80 0.66 80 1 C53.6 1 27.2 1 0 1 C0 0.67 0 0.34 0 0 Z " fill="#0987BC" transform="translate(398,903)"/>
<path d="M0 0 C20.46 0 40.92 0 62 0 C62 0.33 62 0.66 62 1 C41.54 1 21.08 1 0 1 C0 0.67 0 0.34 0 0 Z " fill="#000002" transform="translate(622,822)"/>
<path d="M0 0 C2.38 0.25 2.38 0.25 5 1 C6.31 3.06 6.31 3.06 7 5 C7.66 5 8.32 5 9 5 C9.99 6.49 9.99 6.49 11 8 C10.67 8.99 10.34 9.98 10 11 C8.83 10.22 7.66 9.42 6.5 8.62 C5.85 8.18 5.2 7.74 4.53 7.29 C4.03 6.86 3.52 6.44 3 6 C3 5.34 3 4.68 3 4 C2.01 3.67 1.02 3.34 0 3 C0 2.01 0 1.02 0 0 Z " fill="#045D84" transform="translate(990,673)"/>
<path d="M0 0 C4.71 2.75 7.88 5.93 11.39 10.09 C13.15 12.18 15.03 14.11 17 16 C13.99 16.93 13.13 17.04 10 16 C10.66 15.67 11.32 15.34 12 15 C11.51 14.55 11.01 14.09 10.5 13.62 C9 12 9 12 9 10 C8.34 10 7.68 10 7 10 C7 9.34 7 8.68 7 8 C6.34 8 5.68 8 5 8 C0 2.52 0 2.52 0 0 Z " fill="#077FB2" transform="translate(1237,743)"/>
<path d="M0 0 C13.53 0 27.06 0 41 0 C41 0.33 41 0.66 41 1 C27.47 1 13.94 1 0 1 C0 0.67 0 0.34 0 0 Z " fill="#E18F03" transform="translate(856,844)"/>
<path d="M0 0 C12.87 0 25.74 0 39 0 C39 0.33 39 0.66 39 1 C26.13 1 13.26 1 0 1 C0 0.67 0 0.34 0 0 Z " fill="#000002" transform="translate(265,905)"/>
<path d="M0 0 C12.87 0 25.74 0 39 0 C39 0.33 39 0.66 39 1 C26.13 1 13.26 1 0 1 C0 0.67 0 0.34 0 0 Z " fill="#000002" transform="translate(21,905)"/>
<path d="M0 0 C0.66 0 1.32 0 2 0 C2 0.66 2 1.32 2 2 C2.66 2 3.32 2 4 2 C4 2.66 4 3.32 4 4 C4.99 4.33 5.98 4.66 7 5 C7 5.66 7 6.32 7 7 C6.01 7 5.02 7 4 7 C3.67 7.66 3.34 8.32 3 9 C0.12 6.62 -0.61 4.7 -1 1 C-0.67 0.67 -0.34 0.34 0 0 Z " fill="#023E58" transform="translate(1242,751)"/>
<path d="M0 0 C0.97 -0 1.94 -0.01 2.94 -0.01 C5.44 0.12 5.44 0.12 7.44 1.12 C7.11 1.79 6.78 2.44 6.44 3.12 C1.16 3.12 -4.12 3.12 -9.56 3.12 C-7.65 -0.69 -3.8 -0.01 0 0 Z " fill="#06668E" transform="translate(826.5625,316.875)"/>
<path d="M0 0 C1.71 1.28 3.37 2.62 5 4 C5 4.66 5 5.32 5 6 C5.66 6 6.32 6 7 6 C10 10.38 10 10.38 10 13 C9.01 13 8.02 13 7 13 C4.07 9.89 2.5 6.96 1 3 C0.34 2.34 -0.32 1.68 -1 1 C-0.67 0.67 -0.34 0.34 0 0 Z " fill="#034C6C" transform="translate(978,656)"/>
<path d="M0 0 C0.33 0 0.66 0 1 0 C1 10.89 1 21.78 1 33 C0.67 33 0.34 33 0 33 C0 22.11 0 11.22 0 0 Z " fill="#000002" transform="translate(877,546)"/>
<path d="M0 0 C0.99 0 1.98 0 3 0 C3 2 3 2 1.36 3.73 C0.64 4.35 -0.08 4.98 -0.81 5.62 C-1.87 6.57 -1.87 6.57 -2.96 7.54 C-5 9 -5 9 -8 9 C-7.04 7.87 -6.08 6.75 -5.12 5.62 C-4.59 5 -4.06 4.37 -3.51 3.73 C-2.39 2.44 -1.21 1.21 0 0 Z " fill="#036C9A" transform="translate(808,320)"/>
<path d="M0 0 C1.32 0.33 2.64 0.66 4 1 C4 1.66 4 2.32 4 3 C5.65 3 7.3 3 9 3 C9.66 4.32 10.32 5.64 11 7 C9.68 7.33 8.36 7.66 7 8 C5.76 6.5 4.53 5.01 3.29 3.51 C2.25 2.29 1.13 1.13 0 0 Z " fill="#0573A3" transform="translate(981,666)"/>
<path d="M0 0 C0.33 0 0.66 0 1 0 C1 7.59 1 15.18 1 23 C0.67 23 0.34 23 0 23 C0 15.41 0 7.82 0 0 Z " fill="#000002" transform="translate(1187,878)"/>
<path d="M0 0 C0.33 0 0.66 0 1 0 C1 7.26 1 14.52 1 22 C0.67 22 0.34 22 0 22 C0 14.74 0 7.48 0 0 Z " fill="#005F89" transform="translate(337,936)"/>
<path d="M0 0 C4.29 0 8.58 0 13 0 C13 0.33 13 0.66 13 1 C8.71 1 4.42 1 0 1 C0 0.67 0 0.34 0 0 Z " fill="#000002" transform="translate(888,905)"/>
<path d="M0 0 C0.33 0 0.66 0 1 0 C1 3.63 1 7.26 1 11 C0.67 11 0.34 11 0 11 C0 7.37 0 3.74 0 0 Z " fill="#0987BC" transform="translate(923,613)"/>
<path d="M0 0 C3.3 0 6.6 0 10 0 C10 0.33 10 0.66 10 1 C6.7 1 3.4 1 0 1 C0 0.67 0 0.34 0 0 Z " fill="#000002" transform="translate(343,962)"/>
<path d="M0 0 C2.97 0 5.94 0 9 0 C9 0.33 9 0.66 9 1 C6.03 1 3.06 1 0 1 C0 0.67 0 0.34 0 0 Z " fill="#000002" transform="translate(151,907)"/>
<path d="M0 0 C2.97 0 5.94 0 9 0 C9 0.33 9 0.66 9 1 C6.03 1 3.06 1 0 1 C0 0.67 0 0.34 0 0 Z " fill="#000002" transform="translate(899,647)"/>
<path d="M0 0 C2.31 0 4.62 0 7 0 C7 0.33 7 0.66 7 1 C4.69 1 2.38 1 0 1 C0 0.67 0 0.34 0 0 Z " fill="#000002" transform="translate(1047,902)"/>
<path d="M0 0 C1.98 0 3.96 0 6 0 C6 0.33 6 0.66 6 1 C4.02 1 2.04 1 0 1 C0 0.67 0 0.34 0 0 Z " fill="#000002" transform="translate(1208,685)"/>
<path d="M0 0 C1.98 0 3.96 0 6 0 C6 0.33 6 0.66 6 1 C4.02 1 2.04 1 0 1 C0 0.67 0 0.34 0 0 Z " fill="#000002" transform="translate(881,365)"/>
<path d="M0 0 C1.65 0 3.3 0 5 0 C5 0.33 5 0.66 5 1 C3.35 1 1.7 1 0 1 C0 0.67 0 0.34 0 0 Z " fill="#000002" transform="translate(824,905)"/>
<path d="M0 0 C0.66 0.66 1.32 1.32 2 2 C1.34 2.66 0.68 3.32 0 4 C0 2.68 0 1.36 0 0 Z " fill="#000002" transform="translate(1002,681)"/>
<path d="M0 0 C4 1 4 1 4 1 Z " fill="#000002" transform="translate(706,902)"/>
<path d="M0 0 C4 1 4 1 4 1 Z " fill="#000002" transform="translate(610,820)"/>
<path d="M0 0 C1 4 1 4 1 4 Z " fill="#000002" transform="translate(925,613)"/>
<path d="M0 0 C1 4 1 4 1 4 Z " fill="#000002" transform="translate(915,410)"/>
<path d="M0 0 C3 1 3 1 3 1 Z " fill="#000002" transform="translate(488,960)"/>
<path d="M0 0 C3 1 3 1 3 1 Z " fill="#000002" transform="translate(1186,690)"/>
<path d="" fill="#000002" transform="translate(0,0)"/>
<path d="" fill="#0987BC" transform="translate(0,0)"/>
<path d="" fill="#000002" transform="translate(0,0)"/>
<path d="" fill="#000002" transform="translate(0,0)"/>
<path d="M0 0 C3 1 3 1 3 1 Z " fill="#000002" transform="translate(939,377)"/>
<path d="M0 0 C3 1 3 1 3 1 Z " fill="#000002" transform="translate(821,335)"/>
<path d="M0 0 C2 1 2 1 2 1 Z " fill="#000002" transform="translate(501,957)"/>
<path d="M0 0 C2 1 2 1 2 1 Z " fill="#0987BC" transform="translate(509,953)"/>
<path d="M0 0 C2 1 2 1 2 1 Z " fill="#0987BC" transform="translate(532,929)"/>
<path d="M0 0 C2 1 2 1 2 1 Z " fill="#000002" transform="translate(811,902)"/>
<path d="" fill="#000002" transform="translate(0,0)"/>
<path d="" fill="#000002" transform="translate(0,0)"/>
<path d="" fill="#000002" transform="translate(0,0)"/>
<path d="" fill="#000002" transform="translate(0,0)"/>
<path d="" fill="#000002" transform="translate(0,0)"/>
<path d="" fill="#000002" transform="translate(0,0)"/>
<path d="" fill="#000002" transform="translate(0,0)"/>
<path d="" fill="#005F89" transform="translate(0,0)"/>
<path d="M0 0 C2 1 2 1 2 1 Z " fill="#000002" transform="translate(599,817)"/>
<path d="" fill="#000002" transform="translate(0,0)"/>
<path d="" fill="#0987BC" transform="translate(0,0)"/>
<path d="" fill="#000002" transform="translate(0,0)"/>
<path d="" fill="#000002" transform="translate(0,0)"/>
<path d="" fill="#000002" transform="translate(0,0)"/>
<path d="" fill="#000002" transform="translate(0,0)"/>
<path d="" fill="#000002" transform="translate(0,0)"/>
<path d="M0 0 C2 1 2 1 2 1 Z " fill="#000002" transform="translate(836,745)"/>
<path d="" fill="#000002" transform="translate(0,0)"/>
<path d="M0 0 C2 1 2 1 2 1 Z " fill="#000002" transform="translate(1229,682)"/>
<path d="M0 0 C2 1 2 1 2 1 Z " fill="#000002" transform="translate(1236,680)"/>
<path d="" fill="#000002" transform="translate(0,0)"/>
<path d="M0 0 C2 1 2 1 2 1 Z " fill="#000002" transform="translate(1147,622)"/>
<path d="" fill="#000002" transform="translate(0,0)"/>
<path d="" fill="#000002" transform="translate(0,0)"/>
<path d="M0 0 C2 1 2 1 2 1 Z " fill="#000002" transform="translate(1120,612)"/>
<path d="" fill="#000002" transform="translate(0,0)"/>
<path d="" fill="#000002" transform="translate(0,0)"/>
<path d="" fill="#000002" transform="translate(0,0)"/>
<path d="" fill="#000002" transform="translate(0,0)"/>
<path d="" fill="#000002" transform="translate(0,0)"/>
<path d="" fill="#000002" transform="translate(0,0)"/>
<path d="" fill="#000002" transform="translate(0,0)"/>
<path d="" fill="#000002" transform="translate(0,0)"/>
<path d="" fill="#000002" transform="translate(0,0)"/>
<path d="" fill="#000002" transform="translate(0,0)"/>
<path d="" fill="#000002" transform="translate(0,0)"/>
<path d="" fill="#000002" transform="translate(0,0)"/>
<path d="" fill="#000002" transform="translate(0,0)"/>
<path d="" fill="#000002" transform="translate(0,0)"/>
<path d="M0 0 C2 1 2 1 2 1 Z " fill="#000002" transform="translate(935,375)"/>
<path d="" fill="#000002" transform="translate(0,0)"/>
<path d="" fill="#0987BC" transform="translate(0,0)"/>
<path d="" fill="#005F89" transform="translate(0,0)"/>
<path d="" fill="#005F89" transform="translate(0,0)"/>
<path d="" fill="#005F89" transform="translate(0,0)"/>
<path d="" fill="#000002" transform="translate(0,0)"/>
<path d="" fill="#000002" transform="translate(0,0)"/>
<path d="" fill="#000002" transform="translate(0,0)"/>
<path d="" fill="#000002" transform="translate(0,0)"/>
<path d="" fill="#000002" transform="translate(0,0)"/>
<path d="" fill="#000002" transform="translate(0,0)"/>
<path d="" fill="#000002" transform="translate(0,0)"/>
<path d="" fill="#000002" transform="translate(0,0)"/>
<path d="" fill="#000002" transform="translate(0,0)"/>
<path d="" fill="#000002" transform="translate(0,0)"/>
<path d="" fill="#000002" transform="translate(0,0)"/>
<path d="" fill="#E18F03" transform="translate(0,0)"/>
<path d="" fill="#005F89" transform="translate(0,0)"/>
<path d="" fill="#000002" transform="translate(0,0)"/>
<path d="" fill="#E18F03" transform="translate(0,0)"/>
<path d="" fill="#005F89" transform="translate(0,0)"/>
<path d="" fill="#E18F03" transform="translate(0,0)"/>
<path d="" fill="#000002" transform="translate(0,0)"/>
<path d="" fill="#E18F03" transform="translate(0,0)"/>
<path d="" fill="#E18F03" transform="translate(0,0)"/>
<path d="" fill="#E18F03" transform="translate(0,0)"/>
<path d="" fill="#000002" transform="translate(0,0)"/>
<path d="" fill="#E18F03" transform="translate(0,0)"/>
<path d="" fill="#000002" transform="translate(0,0)"/>
<path d="" fill="#000002" transform="translate(0,0)"/>
<path d="" fill="#000002" transform="translate(0,0)"/>
<path d="" fill="#000002" transform="translate(0,0)"/>
<path d="" fill="#000002" transform="translate(0,0)"/>
<path d="" fill="#000002" transform="translate(0,0)"/>
<path d="" fill="#000002" transform="translate(0,0)"/>
<path d="" fill="#000002" transform="translate(0,0)"/>
<path d="" fill="#000002" transform="translate(0,0)"/>
<path d="" fill="#000002" transform="translate(0,0)"/>
<path d="" fill="#000002" transform="translate(0,0)"/>
<path d="" fill="#000002" transform="translate(0,0)"/>
<path d="" fill="#0987BC" transform="translate(0,0)"/>
<path d="" fill="#005F89" transform="translate(0,0)"/>
<path d="" fill="#000002" transform="translate(0,0)"/>
<path d="" fill="#000002" transform="translate(0,0)"/>
<path d="" fill="#000002" transform="translate(0,0)"/>
<path d="" fill="#000002" transform="translate(0,0)"/>
<path d="" fill="#000002" transform="translate(0,0)"/>
<path d="" fill="#0987BC" transform="translate(0,0)"/>
<path d="" fill="#000002" transform="translate(0,0)"/>
<path d="" fill="#000002" transform="translate(0,0)"/>
<path d="" fill="#0987BC" transform="translate(0,0)"/>
<path d="" fill="#000002" transform="translate(0,0)"/>
<path d="" fill="#000002" transform="translate(0,0)"/>
<path d="" fill="#000002" transform="translate(0,0)"/>
<path d="" fill="#000002" transform="translate(0,0)"/>
<path d="" fill="#000002" transform="translate(0,0)"/>
<path d="" fill="#000002" transform="translate(0,0)"/>
<path d="" fill="#000002" transform="translate(0,0)"/>
<path d="" fill="#E18F03" transform="translate(0,0)"/>
<path d="" fill="#000002" transform="translate(0,0)"/>
<path d="" fill="#000002" transform="translate(0,0)"/>
<path d="" fill="#000002" transform="translate(0,0)"/>
<path d="" fill="#000002" transform="translate(0,0)"/>
<path d="" fill="#000002" transform="translate(0,0)"/>
<path d="" fill="#0987BC" transform="translate(0,0)"/>
<path d="" fill="#000002" transform="translate(0,0)"/>
<path d="" fill="#000002" transform="translate(0,0)"/>
<path d="" fill="#000002" transform="translate(0,0)"/>
<path d="" fill="#000002" transform="translate(0,0)"/>
<path d="" fill="#000002" transform="translate(0,0)"/>
<path d="" fill="#000002" transform="translate(0,0)"/>
<path d="" fill="#E18F03" transform="translate(0,0)"/>
<path d="" fill="#000002" transform="translate(0,0)"/>
<path d="" fill="#000002" transform="translate(0,0)"/>
<path d="" fill="#000002" transform="translate(0,0)"/>
<path d="" fill="#005F89" transform="translate(0,0)"/>
<path d="" fill="#0987BC" transform="translate(0,0)"/>
<path d="" fill="#000002" transform="translate(0,0)"/>
<path d="" fill="#000002" transform="translate(0,0)"/>
<path d="" fill="#000002" transform="translate(0,0)"/>
<path d="" fill="#000002" transform="translate(0,0)"/>
<path d="" fill="#000002" transform="translate(0,0)"/>
<path d="" fill="#0987BC" transform="translate(0,0)"/>
<path d="" fill="#0987BC" transform="translate(0,0)"/>
<path d="" fill="#0987BC" transform="translate(0,0)"/>
<path d="" fill="#000002" transform="translate(0,0)"/>
<path d="" fill="#000002" transform="translate(0,0)"/>
<path d="" fill="#000002" transform="translate(0,0)"/>
<path d="" fill="#000002" transform="translate(0,0)"/>
<path d="" fill="#005F89" transform="translate(0,0)"/>
<path d="" fill="#0987BC" transform="translate(0,0)"/>
<path d="" fill="#000002" transform="translate(0,0)"/>
<path d="" fill="#000002" transform="translate(0,0)"/>
<path d="" fill="#000002" transform="translate(0,0)"/>
<path d="" fill="#000002" transform="translate(0,0)"/>
<path d="" fill="#0987BC" transform="translate(0,0)"/>
<path d="" fill="#000002" transform="translate(0,0)"/>
<path d="" fill="#000002" transform="translate(0,0)"/>
<path d="" fill="#000002" transform="translate(0,0)"/>
<path d="" fill="#000002" transform="translate(0,0)"/>
<path d="" fill="#000002" transform="translate(0,0)"/>
<path d="" fill="#0987BC" transform="translate(0,0)"/>
<path d="" fill="#000002" transform="translate(0,0)"/>
<path d="" fill="#000002" transform="translate(0,0)"/>
<path d="" fill="#000002" transform="translate(0,0)"/>
<path d="" fill="#000002" transform="translate(0,0)"/>
<path d="" fill="#0987BC" transform="translate(0,0)"/>
<path d="" fill="#000002" transform="translate(0,0)"/>
<path d="" fill="#0987BC" transform="translate(0,0)"/>
<path d="" fill="#000002" transform="translate(0,0)"/>
<path d="" fill="#005F89" transform="translate(0,0)"/>
<path d="" fill="#0987BC" transform="translate(0,0)"/>
<path d="" fill="#000002" transform="translate(0,0)"/>
<path d="" fill="#000002" transform="translate(0,0)"/>
<path d="" fill="#0987BC" transform="translate(0,0)"/>
<path d="" fill="#000002" transform="translate(0,0)"/>
<path d="" fill="#0987BC" transform="translate(0,0)"/>
<path d="" fill="#005F89" transform="translate(0,0)"/>
<path d="" fill="#000002" transform="translate(0,0)"/>
<path d="" fill="#000002" transform="translate(0,0)"/>
<path d="" fill="#000002" transform="translate(0,0)"/>
<path d="" fill="#005F89" transform="translate(0,0)"/>
<path d="" fill="#000002" transform="translate(0,0)"/>
<path d="" fill="#000002" transform="translate(0,0)"/>
<path d="" fill="#000002" transform="translate(0,0)"/>
<path d="" fill="#000002" transform="translate(0,0)"/>
<path d="" fill="#000002" transform="translate(0,0)"/>
<path d="" fill="#000002" transform="translate(0,0)"/>
<path d="" fill="#0987BC" transform="translate(0,0)"/>
<path d="" fill="#000002" transform="translate(0,0)"/>
<path d="" fill="#000002" transform="translate(0,0)"/>
<path d="" fill="#000002" transform="translate(0,0)"/>
<path d="" fill="#0987BC" transform="translate(0,0)"/>
<path d="" fill="#000002" transform="translate(0,0)"/>
<path d="" fill="#000002" transform="translate(0,0)"/>
<path d="" fill="#0987BC" transform="translate(0,0)"/>
<path d="" fill="#005F89" transform="translate(0,0)"/>
<path d="" fill="#000002" transform="translate(0,0)"/>
<path d="" fill="#000002" transform="translate(0,0)"/>
<path d="" fill="#000002" transform="translate(0,0)"/>
<path d="" fill="#000002" transform="translate(0,0)"/>
<path d="" fill="#000002" transform="translate(0,0)"/>
<path d="" fill="#000002" transform="translate(0,0)"/>
<path d="" fill="#000002" transform="translate(0,0)"/>
<path d="" fill="#000002" transform="translate(0,0)"/>
<path d="" fill="#005F89" transform="translate(0,0)"/>
</svg>
